<svg width="255" height="469" viewBox="0 0 255 469" fill="none" xmlns="http://www.w3.org/2000/svg">
<g clip-path="url(#clip0_0_1901)">
<g filter="url(#filter0_d_0_1901)">
<rect width="255" height="469" rx="6" fill="white"/>
</g>
<g clip-path="url(#clip1_0_1901)">
<rect x="28" y="419" width="28" height="28" fill="white"/>
<path d="M39.5497 428.273V437H38.4929V429.381H38.4418L36.3111 430.795V429.722L38.4929 428.273H39.5497ZM42.0597 437V436.233L44.9403 433.08C45.2784 432.71 45.5568 432.389 45.7756 432.116C45.9943 431.841 46.1563 431.582 46.2614 431.341C46.3693 431.097 46.4233 430.841 46.4233 430.574C46.4233 430.267 46.3494 430.001 46.2017 429.777C46.0568 429.553 45.858 429.379 45.6051 429.257C45.3523 429.135 45.0682 429.074 44.7528 429.074C44.4176 429.074 44.125 429.143 43.875 429.283C43.6278 429.419 43.4361 429.611 43.2997 429.858C43.1662 430.105 43.0994 430.395 43.0994 430.727H42.0938C42.0938 430.216 42.2116 429.767 42.4474 429.381C42.6832 428.994 43.0043 428.693 43.4105 428.477C43.8196 428.261 44.2784 428.153 44.7869 428.153C45.2983 428.153 45.7514 428.261 46.1463 428.477C46.5412 428.693 46.8509 428.984 47.0753 429.351C47.2997 429.717 47.4119 430.125 47.4119 430.574C47.4119 430.895 47.3537 431.209 47.2372 431.516C47.1236 431.82 46.9247 432.159 46.6406 432.534C46.3594 432.906 45.9688 433.361 45.4688 433.898L43.5085 435.994V436.062H47.5653V437H42.0597Z" fill="#A1A7C4"/>
<rect x="38" y="346" width="8" height="65" rx="4" fill="#1FD286"/>
</g>
<g clip-path="url(#clip2_0_1901)">
<rect x="56" y="419" width="28" height="28" fill="white"/>
<path d="M67.3622 428.273V437H66.3054V429.381H66.2543L64.1236 430.795V429.722L66.3054 428.273H67.3622ZM72.821 437.119C72.2585 437.119 71.7571 437.023 71.3168 436.83C70.8793 436.636 70.5313 436.368 70.2727 436.024C70.017 435.678 69.8778 435.276 69.8551 434.818H70.929C70.9517 435.099 71.0483 435.342 71.2188 435.547C71.3892 435.749 71.6122 435.905 71.8878 436.016C72.1634 436.126 72.4688 436.182 72.804 436.182C73.179 436.182 73.5114 436.116 73.8011 435.986C74.0909 435.855 74.3182 435.673 74.483 435.44C74.6477 435.207 74.7301 434.938 74.7301 434.631C74.7301 434.31 74.6506 434.027 74.4915 433.783C74.3324 433.536 74.0994 433.342 73.7926 433.203C73.4858 433.064 73.1108 432.994 72.6676 432.994H71.9688V432.057H72.6676C73.0142 432.057 73.3182 431.994 73.5795 431.869C73.8438 431.744 74.0497 431.568 74.1974 431.341C74.348 431.114 74.4233 430.847 74.4233 430.54C74.4233 430.244 74.358 429.987 74.2273 429.768C74.0966 429.55 73.9119 429.379 73.6733 429.257C73.4375 429.135 73.1591 429.074 72.8381 429.074C72.5369 429.074 72.2528 429.129 71.9858 429.24C71.7216 429.348 71.5057 429.506 71.3381 429.713C71.1705 429.918 71.0795 430.165 71.0653 430.455H70.0426C70.0597 429.997 70.1974 429.597 70.456 429.253C70.7145 428.906 71.0526 428.636 71.4702 428.443C71.8906 428.25 72.3523 428.153 72.8551 428.153C73.3949 428.153 73.858 428.263 74.2443 428.482C74.6307 428.697 74.9276 428.983 75.1349 429.338C75.3423 429.693 75.446 430.077 75.446 430.489C75.446 430.98 75.3168 431.399 75.0582 431.746C74.8026 432.092 74.4545 432.332 74.0142 432.466V432.534C74.5653 432.625 74.9957 432.859 75.3054 433.237C75.6151 433.612 75.7699 434.077 75.7699 434.631C75.7699 435.105 75.6406 435.531 75.3821 435.909C75.1264 436.284 74.777 436.58 74.3338 436.795C73.8906 437.011 73.3864 437.119 72.821 437.119Z" fill="#A1A7C4"/>
<rect x="66" y="319" width="8" height="92" rx="4" fill="#1FD286"/>
</g>
<g clip-path="url(#clip3_0_1901)">
<rect x="84" y="419" width="28" height="28" fill="white"/>
<path d="M95.3329 428.273V437H94.2761V429.381H94.225L92.0943 430.795V429.722L94.2761 428.273H95.3329ZM97.6383 435.21V434.341L101.474 428.273H102.104V429.619H101.678L98.7804 434.205V434.273H103.945V435.21H97.6383ZM101.746 437V434.946V434.541V428.273H102.752V437H101.746Z" fill="#A1A7C4"/>
<rect x="94" y="332" width="8" height="79" rx="4" fill="#1FD286"/>
</g>
<g clip-path="url(#clip4_0_1901)">
<rect x="112" y="419" width="28" height="28" fill="white"/>
<path d="M123.532 428.273V437H122.475V429.381H122.424L120.294 430.795V429.722L122.475 428.273H123.532ZM128.769 437.119C128.269 437.119 127.819 437.02 127.419 436.821C127.018 436.622 126.697 436.349 126.455 436.003C126.214 435.656 126.082 435.261 126.059 434.818H127.082C127.122 435.213 127.301 435.54 127.619 435.798C127.94 436.054 128.323 436.182 128.769 436.182C129.127 436.182 129.445 436.098 129.724 435.93C130.005 435.763 130.225 435.533 130.384 435.24C130.546 434.945 130.627 434.611 130.627 434.239C130.627 433.858 130.544 433.518 130.376 433.22C130.211 432.919 129.984 432.682 129.694 432.509C129.404 432.335 129.073 432.247 128.701 432.244C128.434 432.241 128.16 432.283 127.879 432.368C127.597 432.45 127.366 432.557 127.184 432.688L126.195 432.568L126.724 428.273H131.258V429.21H127.61L127.303 431.784H127.355C127.534 431.642 127.758 431.524 128.028 431.43C128.298 431.337 128.579 431.29 128.872 431.29C129.406 431.29 129.882 431.418 130.299 431.673C130.72 431.926 131.049 432.273 131.288 432.713C131.529 433.153 131.65 433.656 131.65 434.222C131.65 434.778 131.525 435.276 131.275 435.713C131.028 436.148 130.687 436.491 130.252 436.744C129.818 436.994 129.323 437.119 128.769 437.119Z" fill="#A1A7C4"/>
<rect x="122" y="317" width="8" height="94" rx="4" fill="#1FD286"/>
</g>
<g clip-path="url(#clip5_0_1901)">
<rect x="140" y="419" width="28" height="28" fill="white"/>
<path d="M151.438 428.273V437H150.382V429.381H150.33L148.2 430.795V429.722L150.382 428.273H151.438ZM156.846 437.119C156.488 437.114 156.13 437.045 155.772 436.915C155.414 436.784 155.088 436.564 154.792 436.254C154.497 435.942 154.259 435.52 154.08 434.989C153.901 434.455 153.812 433.784 153.812 432.977C153.812 432.205 153.884 431.52 154.029 430.923C154.174 430.324 154.384 429.82 154.66 429.411C154.936 428.999 155.268 428.686 155.657 428.473C156.049 428.26 156.491 428.153 156.982 428.153C157.471 428.153 157.906 428.251 158.286 428.447C158.67 428.641 158.982 428.911 159.224 429.257C159.465 429.604 159.622 430.003 159.693 430.455H158.653C158.556 430.062 158.369 429.737 158.09 429.479C157.812 429.22 157.443 429.091 156.982 429.091C156.306 429.091 155.774 429.385 155.384 429.973C154.998 430.561 154.803 431.386 154.801 432.449H154.869C155.028 432.207 155.217 432.001 155.436 431.831C155.657 431.658 155.901 431.524 156.169 431.43C156.436 431.337 156.718 431.29 157.017 431.29C157.517 431.29 157.974 431.415 158.389 431.665C158.803 431.912 159.136 432.254 159.386 432.692C159.636 433.126 159.761 433.625 159.761 434.188C159.761 434.727 159.64 435.222 159.399 435.67C159.157 436.116 158.818 436.472 158.38 436.736C157.945 436.997 157.434 437.125 156.846 437.119ZM156.846 436.182C157.204 436.182 157.525 436.092 157.809 435.913C158.096 435.734 158.322 435.494 158.487 435.193C158.654 434.892 158.738 434.557 158.738 434.188C158.738 433.827 158.657 433.499 158.495 433.203C158.336 432.905 158.116 432.668 157.835 432.491C157.556 432.315 157.238 432.227 156.88 432.227C156.61 432.227 156.359 432.281 156.126 432.389C155.893 432.494 155.688 432.639 155.512 432.824C155.339 433.009 155.203 433.22 155.103 433.459C155.004 433.695 154.954 433.943 154.954 434.205C154.954 434.551 155.035 434.875 155.197 435.176C155.362 435.477 155.586 435.72 155.87 435.905C156.157 436.089 156.482 436.182 156.846 436.182Z" fill="#A1A7C4"/>
<rect x="150" y="285" width="8" height="126" rx="4" fill="#1FD286"/>
</g>
<g clip-path="url(#clip6_0_1901)">
<rect x="168" y="419" width="28" height="28" fill="white"/>
<path d="M179.755 428.273V437H178.698V429.381H178.647L176.516 430.795V429.722L178.698 428.273H179.755ZM182.537 437L186.441 429.278V429.21H181.941V428.273H187.532V429.261L183.645 437H182.537Z" fill="#A1A7C4"/>
<rect x="178" y="253" width="8" height="158" rx="4" fill="#1FD286"/>
</g>
<g clip-path="url(#clip7_0_1901)">
<rect x="196" y="419" width="28" height="28" fill="white"/>
<path d="M207.485 428.273V437H206.428V429.381H206.377L204.247 430.795V429.722L206.428 428.273H207.485ZM212.791 437.119C212.205 437.119 211.688 437.016 211.24 436.808C210.794 436.598 210.445 436.31 210.195 435.943C209.945 435.574 209.822 435.153 209.825 434.682C209.822 434.312 209.894 433.972 210.042 433.659C210.19 433.344 210.392 433.081 210.647 432.871C210.906 432.658 211.194 432.523 211.512 432.466V432.415C211.095 432.307 210.762 432.072 210.515 431.712C210.268 431.348 210.146 430.935 210.149 430.472C210.146 430.028 210.258 429.632 210.485 429.283C210.713 428.933 211.025 428.658 211.423 428.456C211.823 428.254 212.279 428.153 212.791 428.153C213.296 428.153 213.748 428.254 214.146 428.456C214.544 428.658 214.856 428.933 215.083 429.283C215.313 429.632 215.43 430.028 215.433 430.472C215.43 430.935 215.303 431.348 215.053 431.712C214.806 432.072 214.478 432.307 214.069 432.415V432.466C214.384 432.523 214.669 432.658 214.921 432.871C215.174 433.081 215.376 433.344 215.526 433.659C215.677 433.972 215.754 434.312 215.757 434.682C215.754 435.153 215.626 435.574 215.373 435.943C215.123 436.31 214.775 436.598 214.329 436.808C213.886 437.016 213.373 437.119 212.791 437.119ZM212.791 436.182C213.186 436.182 213.526 436.118 213.813 435.99C214.1 435.862 214.322 435.682 214.478 435.449C214.634 435.216 214.714 434.943 214.717 434.631C214.714 434.301 214.629 434.01 214.461 433.757C214.294 433.504 214.065 433.305 213.775 433.161C213.488 433.016 213.16 432.943 212.791 432.943C212.419 432.943 212.086 433.016 211.794 433.161C211.504 433.305 211.275 433.504 211.107 433.757C210.943 434.01 210.862 434.301 210.865 434.631C210.862 434.943 210.937 435.216 211.09 435.449C211.247 435.682 211.47 435.862 211.759 435.99C212.049 436.118 212.393 436.182 212.791 436.182ZM212.791 432.04C213.103 432.04 213.38 431.977 213.622 431.852C213.866 431.727 214.058 431.553 214.197 431.328C214.336 431.104 214.407 430.841 214.41 430.54C214.407 430.244 214.338 429.987 214.201 429.768C214.065 429.547 213.876 429.376 213.634 429.257C213.393 429.135 213.112 429.074 212.791 429.074C212.464 429.074 212.178 429.135 211.934 429.257C211.69 429.376 211.501 429.547 211.367 429.768C211.234 429.987 211.169 430.244 211.171 430.54C211.169 430.841 211.235 431.104 211.372 431.328C211.511 431.553 211.703 431.727 211.947 431.852C212.191 431.977 212.472 432.04 212.791 432.04Z" fill="#A1A7C4"/>
<rect x="206" y="263" width="8" height="148" rx="4" fill="#1FD286"/>
</g>
<g clip-path="url(#clip8_0_1901)">
<path fill-rule="evenodd" clip-rule="evenodd" d="M96 265C93.7909 265 92 266.791 92 269V301C92 303.209 93.7909 305 96 305H120L126 311L132 305H156C158.209 305 160 303.209 160 301V269C160 266.791 158.209 265 156 265H96Z" fill="#333752"/>
<path d="M107.639 290.091V279.182H108.338V290.091H107.639ZM109.493 282.783C109.459 282.439 109.313 282.172 109.054 281.982C108.795 281.791 108.445 281.696 108.001 281.696C107.7 281.696 107.446 281.739 107.239 281.824C107.031 281.906 106.872 282.021 106.761 282.169C106.653 282.317 106.599 282.484 106.599 282.672C106.594 282.828 106.626 282.964 106.697 283.081C106.771 283.197 106.872 283.298 107 283.384C107.128 283.466 107.276 283.538 107.443 283.601C107.611 283.661 107.79 283.712 107.98 283.754L108.764 283.942C109.145 284.027 109.494 284.141 109.812 284.283C110.131 284.425 110.406 284.599 110.639 284.807C110.872 285.014 111.053 285.259 111.18 285.54C111.311 285.821 111.378 286.143 111.381 286.507C111.378 287.041 111.241 287.504 110.972 287.896C110.705 288.286 110.318 288.588 109.812 288.804C109.31 289.017 108.703 289.124 107.993 289.124C107.288 289.124 106.675 289.016 106.152 288.8C105.632 288.584 105.226 288.264 104.933 287.841C104.643 287.415 104.491 286.888 104.477 286.26H106.263C106.283 286.553 106.366 286.797 106.514 286.993C106.665 287.186 106.865 287.332 107.115 287.432C107.368 287.528 107.653 287.577 107.972 287.577C108.284 287.577 108.555 287.531 108.786 287.44C109.018 287.349 109.199 287.223 109.327 287.061C109.455 286.899 109.518 286.713 109.518 286.503C109.518 286.307 109.46 286.142 109.344 286.009C109.23 285.875 109.063 285.761 108.841 285.668C108.622 285.574 108.354 285.489 108.036 285.412L107.085 285.173C106.349 284.994 105.768 284.714 105.342 284.334C104.916 283.953 104.705 283.44 104.707 282.795C104.705 282.267 104.845 281.805 105.129 281.411C105.416 281.016 105.81 280.707 106.31 280.486C106.81 280.264 107.378 280.153 108.014 280.153C108.662 280.153 109.227 280.264 109.71 280.486C110.196 280.707 110.574 281.016 110.844 281.411C111.114 281.805 111.253 282.263 111.261 282.783H109.493ZM112.571 289V287.67L115.677 284.794C115.941 284.538 116.163 284.308 116.342 284.104C116.524 283.899 116.662 283.699 116.755 283.503C116.849 283.304 116.896 283.089 116.896 282.859C116.896 282.604 116.838 282.384 116.721 282.199C116.605 282.011 116.446 281.868 116.244 281.768C116.042 281.666 115.814 281.615 115.558 281.615C115.291 281.615 115.058 281.669 114.859 281.777C114.66 281.885 114.507 282.04 114.399 282.241C114.291 282.443 114.237 282.683 114.237 282.962H112.485C112.485 282.391 112.615 281.895 112.873 281.474C113.132 281.054 113.494 280.729 113.96 280.499C114.426 280.268 114.963 280.153 115.571 280.153C116.196 280.153 116.74 280.264 117.203 280.486C117.669 280.705 118.031 281.009 118.289 281.398C118.548 281.787 118.677 282.233 118.677 282.736C118.677 283.065 118.612 283.391 118.481 283.712C118.353 284.033 118.125 284.389 117.795 284.781C117.466 285.17 117.001 285.638 116.402 286.183L115.127 287.432V287.491H118.792V289H112.571ZM122.119 287.807L122.072 288.276C122.036 288.651 121.964 289.024 121.859 289.396C121.757 289.771 121.649 290.111 121.536 290.415C121.425 290.719 121.335 290.957 121.267 291.131H120.091C120.134 290.963 120.192 290.729 120.266 290.428C120.339 290.129 120.409 289.794 120.474 289.422C120.54 289.05 120.581 288.67 120.598 288.284L120.619 287.807H122.119ZM126.879 289.119C126.277 289.119 125.74 289.009 125.268 288.787C124.8 288.565 124.428 288.26 124.152 287.871C123.876 287.482 123.733 287.036 123.722 286.533H125.511C125.531 286.871 125.673 287.145 125.938 287.355C126.202 287.565 126.516 287.67 126.879 287.67C127.169 287.67 127.425 287.607 127.646 287.479C127.871 287.348 128.045 287.168 128.17 286.938C128.298 286.705 128.362 286.437 128.362 286.136C128.362 285.83 128.297 285.56 128.166 285.327C128.038 285.094 127.861 284.912 127.634 284.781C127.406 284.651 127.146 284.584 126.854 284.581C126.598 284.581 126.349 284.634 126.108 284.739C125.869 284.844 125.683 284.987 125.55 285.169L123.909 284.875L124.322 280.273H129.658V281.781H125.844L125.618 283.967H125.669C125.822 283.751 126.054 283.572 126.364 283.43C126.673 283.288 127.02 283.217 127.403 283.217C127.929 283.217 128.398 283.341 128.81 283.588C129.222 283.835 129.547 284.175 129.786 284.607C130.024 285.036 130.142 285.53 130.139 286.089C130.142 286.678 130.006 287.2 129.73 287.658C129.457 288.112 129.075 288.47 128.584 288.732C128.095 288.99 127.527 289.119 126.879 289.119ZM131.426 289V287.67L134.533 284.794C134.797 284.538 135.018 284.308 135.197 284.104C135.379 283.899 135.517 283.699 135.611 283.503C135.705 283.304 135.751 283.089 135.751 282.859C135.751 282.604 135.693 282.384 135.577 282.199C135.46 282.011 135.301 281.868 135.099 281.768C134.898 281.666 134.669 281.615 134.413 281.615C134.146 281.615 133.913 281.669 133.714 281.777C133.516 281.885 133.362 282.04 133.254 282.241C133.146 282.443 133.092 282.683 133.092 282.962H131.341C131.341 282.391 131.47 281.895 131.729 281.474C131.987 281.054 132.349 280.729 132.815 280.499C133.281 280.268 133.818 280.153 134.426 280.153C135.051 280.153 135.595 280.264 136.058 280.486C136.524 280.705 136.886 281.009 137.145 281.398C137.403 281.787 137.533 282.233 137.533 282.736C137.533 283.065 137.467 283.391 137.337 283.712C137.209 284.033 136.98 284.389 136.651 284.781C136.321 285.17 135.857 285.638 135.257 286.183L133.983 287.432V287.491H137.648V289H131.426ZM142.172 289.119C141.57 289.119 141.033 289.009 140.561 288.787C140.093 288.565 139.721 288.26 139.445 287.871C139.169 287.482 139.026 287.036 139.015 286.533H140.804C140.824 286.871 140.966 287.145 141.23 287.355C141.495 287.565 141.809 287.67 142.172 287.67C142.462 287.67 142.718 287.607 142.939 287.479C143.164 287.348 143.338 287.168 143.463 286.938C143.591 286.705 143.655 286.437 143.655 286.136C143.655 285.83 143.59 285.56 143.459 285.327C143.331 285.094 143.154 284.912 142.926 284.781C142.699 284.651 142.439 284.584 142.147 284.581C141.891 284.581 141.642 284.634 141.401 284.739C141.162 284.844 140.976 284.987 140.843 285.169L139.202 284.875L139.615 280.273H144.951V281.781H141.137L140.911 283.967H140.962C141.115 283.751 141.347 283.572 141.657 283.43C141.966 283.288 142.313 283.217 142.696 283.217C143.222 283.217 143.691 283.341 144.103 283.588C144.515 283.835 144.84 284.175 145.078 284.607C145.317 285.036 145.435 285.53 145.432 286.089C145.435 286.678 145.299 287.2 145.023 287.658C144.75 288.112 144.368 288.47 143.877 288.732C143.388 288.99 142.82 289.119 142.172 289.119Z" fill="white"/>
</g>
<path d="M29.0114 46V34.3636H31.4716V43.9716H36.4602V46H29.0114ZM40.5327 46.1648C39.9759 46.1648 39.4796 46.0682 39.044 45.875C38.6084 45.678 38.2637 45.3883 38.0099 45.0057C37.7599 44.6193 37.6349 44.1383 37.6349 43.5625C37.6349 43.0777 37.724 42.6705 37.902 42.3409C38.08 42.0114 38.3224 41.7462 38.6293 41.5455C38.9361 41.3447 39.2846 41.1932 39.6747 41.0909C40.0687 40.9886 40.4815 40.9167 40.9134 40.875C41.4209 40.822 41.83 40.7727 42.1406 40.7273C42.4512 40.678 42.6766 40.6061 42.8168 40.5114C42.9569 40.4167 43.027 40.2765 43.027 40.0909V40.0568C43.027 39.697 42.9134 39.4186 42.6861 39.2216C42.4626 39.0246 42.1444 38.9261 41.7315 38.9261C41.2959 38.9261 40.9493 39.0227 40.6918 39.2159C40.4342 39.4053 40.2637 39.6439 40.1804 39.9318L37.9418 39.75C38.0554 39.2197 38.2789 38.7614 38.6122 38.375C38.9455 37.9848 39.3755 37.6856 39.902 37.4773C40.4323 37.2652 41.0459 37.1591 41.7429 37.1591C42.2277 37.1591 42.6918 37.2159 43.1349 37.3295C43.5819 37.4432 43.9777 37.6193 44.3224 37.858C44.6709 38.0966 44.9455 38.4034 45.1463 38.7784C45.3471 39.1496 45.4474 39.5947 45.4474 40.1136V46H43.152V44.7898H43.0838C42.9437 45.0625 42.7562 45.303 42.5213 45.5114C42.2865 45.7159 42.0043 45.8769 41.6747 45.9943C41.3452 46.108 40.9645 46.1648 40.5327 46.1648ZM41.2259 44.4943C41.5819 44.4943 41.8963 44.4242 42.169 44.2841C42.4418 44.1402 42.6558 43.947 42.8111 43.7045C42.9664 43.4621 43.044 43.1875 43.044 42.8807V41.9545C42.9683 42.0038 42.8641 42.0492 42.7315 42.0909C42.6027 42.1288 42.4569 42.1648 42.294 42.1989C42.1312 42.2292 41.9683 42.2576 41.8054 42.2841C41.6425 42.3068 41.4948 42.3277 41.3622 42.3466C41.0781 42.3883 40.83 42.4545 40.6179 42.5455C40.4058 42.6364 40.241 42.7595 40.1236 42.9148C40.0062 43.0663 39.9474 43.2557 39.9474 43.483C39.9474 43.8125 40.0668 44.0644 40.3054 44.2386C40.5478 44.4091 40.8546 44.4943 41.2259 44.4943ZM54.5866 39.7614L52.3707 39.8977C52.3329 39.7083 52.2514 39.5379 52.1264 39.3864C52.0014 39.2311 51.8366 39.108 51.6321 39.017C51.4313 38.9223 51.1908 38.875 50.9105 38.875C50.5355 38.875 50.2192 38.9545 49.9616 39.1136C49.7041 39.2689 49.5753 39.4773 49.5753 39.7386C49.5753 39.947 49.6586 40.1231 49.8253 40.267C49.992 40.411 50.2779 40.5265 50.6832 40.6136L52.2628 40.9318C53.1113 41.1061 53.7438 41.3864 54.1605 41.7727C54.5772 42.1591 54.7855 42.6667 54.7855 43.2955C54.7855 43.8674 54.617 44.3693 54.2798 44.8011C53.9465 45.233 53.4882 45.5701 52.9048 45.8125C52.3253 46.0511 51.6567 46.1705 50.8991 46.1705C49.7438 46.1705 48.8234 45.9299 48.1378 45.4489C47.456 44.964 47.0563 44.3049 46.9389 43.4716L49.3196 43.3466C49.3916 43.6989 49.5658 43.9678 49.8423 44.1534C50.1188 44.3352 50.473 44.4261 50.9048 44.4261C51.3291 44.4261 51.67 44.3447 51.9276 44.1818C52.1889 44.0152 52.3215 43.8011 52.3253 43.5398C52.3215 43.3201 52.2287 43.1402 52.0469 43C51.8651 42.8561 51.5848 42.7462 51.206 42.6705L49.6946 42.3693C48.8423 42.1989 48.2079 41.9034 47.7912 41.483C47.3783 41.0625 47.1719 40.5265 47.1719 39.875C47.1719 39.3144 47.3234 38.8314 47.6264 38.4261C47.9332 38.0208 48.3632 37.7083 48.9162 37.4886C49.473 37.2689 50.1245 37.1591 50.8707 37.1591C51.973 37.1591 52.8404 37.392 53.473 37.858C54.1094 38.3239 54.4806 38.9583 54.5866 39.7614ZM60.9517 37.2727V39.0909H55.696V37.2727H60.9517ZM56.8892 35.1818H59.3097V43.3182C59.3097 43.5417 59.3438 43.7159 59.4119 43.8409C59.4801 43.9621 59.5748 44.0473 59.696 44.0966C59.821 44.1458 59.965 44.1705 60.1278 44.1705C60.2415 44.1705 60.3551 44.161 60.4688 44.142C60.5824 44.1193 60.6695 44.1023 60.7301 44.0909L61.1108 45.892C60.9896 45.9299 60.8191 45.9735 60.5994 46.0227C60.3797 46.0758 60.1127 46.108 59.7983 46.1193C59.215 46.142 58.7036 46.0644 58.2642 45.8864C57.8286 45.7083 57.4896 45.4318 57.2472 45.0568C57.0047 44.6818 56.8854 44.2083 56.8892 43.6364V35.1818ZM66.669 46L71.4929 36.4545V36.375H65.8736V34.3636H74.0384V36.4034L69.2088 46H66.669ZM83.6207 46H79.4957V34.3636H83.6548C84.8253 34.3636 85.8329 34.5966 86.6776 35.0625C87.5223 35.5246 88.1719 36.1894 88.6264 37.0568C89.0848 37.9242 89.3139 38.9621 89.3139 40.1705C89.3139 41.3826 89.0848 42.4242 88.6264 43.2955C88.1719 44.1667 87.5185 44.8352 86.6662 45.3011C85.8177 45.767 84.8026 46 83.6207 46ZM81.956 43.892H83.5185C84.2457 43.892 84.8575 43.7633 85.3537 43.5057C85.8537 43.2443 86.2287 42.8409 86.4787 42.2955C86.7325 41.7462 86.8594 41.0379 86.8594 40.1705C86.8594 39.3106 86.7325 38.608 86.4787 38.0625C86.2287 37.517 85.8556 37.1155 85.3594 36.858C84.8632 36.6004 84.2514 36.4716 83.5241 36.4716H81.956V43.892ZM93.5795 46.1648C93.0227 46.1648 92.5265 46.0682 92.0909 45.875C91.6553 45.678 91.3106 45.3883 91.0568 45.0057C90.8068 44.6193 90.6818 44.1383 90.6818 43.5625C90.6818 43.0777 90.7708 42.6705 90.9489 42.3409C91.1269 42.0114 91.3693 41.7462 91.6761 41.5455C91.983 41.3447 92.3314 41.1932 92.7216 41.0909C93.1155 40.9886 93.5284 40.9167 93.9602 40.875C94.4678 40.822 94.8769 40.7727 95.1875 40.7273C95.4981 40.678 95.7235 40.6061 95.8636 40.5114C96.0038 40.4167 96.0739 40.2765 96.0739 40.0909V40.0568C96.0739 39.697 95.9602 39.4186 95.733 39.2216C95.5095 39.0246 95.1913 38.9261 94.7784 38.9261C94.3428 38.9261 93.9962 39.0227 93.7386 39.2159C93.4811 39.4053 93.3106 39.6439 93.2273 39.9318L90.9886 39.75C91.1023 39.2197 91.3258 38.7614 91.6591 38.375C91.9924 37.9848 92.4223 37.6856 92.9489 37.4773C93.4792 37.2652 94.0928 37.1591 94.7898 37.1591C95.2746 37.1591 95.7386 37.2159 96.1818 37.3295C96.6288 37.4432 97.0246 37.6193 97.3693 37.858C97.7178 38.0966 97.9924 38.4034 98.1932 38.7784C98.3939 39.1496 98.4943 39.5947 98.4943 40.1136V46H96.1989V44.7898H96.1307C95.9905 45.0625 95.803 45.303 95.5682 45.5114C95.3333 45.7159 95.0511 45.8769 94.7216 45.9943C94.392 46.108 94.0114 46.1648 93.5795 46.1648ZM94.2727 44.4943C94.6288 44.4943 94.9432 44.4242 95.2159 44.2841C95.4886 44.1402 95.7027 43.947 95.858 43.7045C96.0133 43.4621 96.0909 43.1875 96.0909 42.8807V41.9545C96.0152 42.0038 95.911 42.0492 95.7784 42.0909C95.6496 42.1288 95.5038 42.1648 95.3409 42.1989C95.178 42.2292 95.0152 42.2576 94.8523 42.2841C94.6894 42.3068 94.5417 42.3277 94.4091 42.3466C94.125 42.3883 93.8769 42.4545 93.6648 42.5455C93.4527 42.6364 93.2879 42.7595 93.1705 42.9148C93.053 43.0663 92.9943 43.2557 92.9943 43.483C92.9943 43.8125 93.1136 44.0644 93.3523 44.2386C93.5947 44.4091 93.9015 44.4943 94.2727 44.4943ZM101.554 49.2727C101.247 49.2727 100.959 49.2481 100.69 49.1989C100.425 49.1534 100.205 49.0947 100.031 49.0227L100.577 47.2159C100.861 47.303 101.116 47.3504 101.344 47.358C101.575 47.3655 101.774 47.3125 101.94 47.1989C102.111 47.0852 102.249 46.892 102.355 46.6193L102.497 46.25L99.3665 37.2727H101.912L103.719 43.6818H103.81L105.634 37.2727H108.196L104.804 46.9432C104.641 47.4129 104.42 47.822 104.139 48.1705C103.863 48.5227 103.512 48.7936 103.088 48.983C102.664 49.1761 102.152 49.2727 101.554 49.2727ZM116.696 39.7614L114.48 39.8977C114.442 39.7083 114.361 39.5379 114.236 39.3864C114.111 39.2311 113.946 39.108 113.741 39.017C113.541 38.9223 113.3 38.875 113.02 38.875C112.645 38.875 112.329 38.9545 112.071 39.1136C111.813 39.2689 111.685 39.4773 111.685 39.7386C111.685 39.947 111.768 40.1231 111.935 40.267C112.101 40.411 112.387 40.5265 112.793 40.6136L114.372 40.9318C115.221 41.1061 115.853 41.3864 116.27 41.7727C116.687 42.1591 116.895 42.6667 116.895 43.2955C116.895 43.8674 116.726 44.3693 116.389 44.8011C116.056 45.233 115.598 45.5701 115.014 45.8125C114.435 46.0511 113.766 46.1705 113.009 46.1705C111.853 46.1705 110.933 45.9299 110.247 45.4489C109.565 44.964 109.166 44.3049 109.048 43.4716L111.429 43.3466C111.501 43.6989 111.675 43.9678 111.952 44.1534C112.228 44.3352 112.582 44.4261 113.014 44.4261C113.438 44.4261 113.779 44.3447 114.037 44.1818C114.298 44.0152 114.431 43.8011 114.435 43.5398C114.431 43.3201 114.338 43.1402 114.156 43C113.974 42.8561 113.694 42.7462 113.315 42.6705L111.804 42.3693C110.952 42.1989 110.317 41.9034 109.901 41.483C109.488 41.0625 109.281 40.5265 109.281 39.875C109.281 39.3144 109.433 38.8314 109.736 38.4261C110.043 38.0208 110.473 37.7083 111.026 37.4886C111.582 37.2689 112.234 37.1591 112.98 37.1591C114.082 37.1591 114.95 37.392 115.582 37.858C116.219 38.3239 116.59 38.9583 116.696 39.7614ZM128.48 37.7102C128.435 37.2519 128.24 36.8958 127.895 36.642C127.55 36.3883 127.082 36.2614 126.491 36.2614C126.09 36.2614 125.751 36.3182 125.474 36.4318C125.198 36.5417 124.986 36.6951 124.838 36.892C124.694 37.089 124.622 37.3125 124.622 37.5625C124.615 37.7708 124.658 37.9527 124.753 38.108C124.851 38.2633 124.986 38.3977 125.156 38.5114C125.327 38.6212 125.524 38.7178 125.747 38.8011C125.971 38.8807 126.209 38.9489 126.463 39.0057L127.509 39.2557C128.016 39.3693 128.482 39.5208 128.906 39.7102C129.33 39.8996 129.698 40.1326 130.009 40.4091C130.319 40.6856 130.56 41.0114 130.73 41.3864C130.904 41.7614 130.993 42.1913 130.997 42.6761C130.993 43.3883 130.812 44.0057 130.452 44.5284C130.096 45.0473 129.58 45.4508 128.906 45.7386C128.236 46.0227 127.427 46.1648 126.48 46.1648C125.541 46.1648 124.723 46.0208 124.026 45.733C123.332 45.4451 122.791 45.0189 122.401 44.4545C122.014 43.8864 121.812 43.1837 121.793 42.3466H124.173C124.2 42.7367 124.312 43.0625 124.509 43.3239C124.709 43.5814 124.976 43.7765 125.31 43.9091C125.647 44.0379 126.027 44.1023 126.452 44.1023C126.868 44.1023 127.23 44.0417 127.537 43.9205C127.848 43.7992 128.088 43.6307 128.259 43.4148C128.429 43.1989 128.514 42.9508 128.514 42.6705C128.514 42.4091 128.437 42.1894 128.281 42.0114C128.13 41.8333 127.906 41.6818 127.611 41.5568C127.319 41.4318 126.961 41.3182 126.537 41.2159L125.27 40.8977C124.289 40.6591 123.514 40.286 122.946 39.7784C122.378 39.2708 122.096 38.5871 122.099 37.7273C122.096 37.0227 122.283 36.4072 122.662 35.8807C123.045 35.3542 123.569 34.9432 124.236 34.6477C124.902 34.3523 125.66 34.2045 126.509 34.2045C127.372 34.2045 128.126 34.3523 128.77 34.6477C129.418 34.9432 129.921 35.3542 130.281 35.8807C130.641 36.4072 130.827 37.017 130.838 37.7102H128.48ZM135.095 46.1648C134.538 46.1648 134.042 46.0682 133.607 45.875C133.171 45.678 132.826 45.3883 132.572 45.0057C132.322 44.6193 132.197 44.1383 132.197 43.5625C132.197 43.0777 132.286 42.6705 132.464 42.3409C132.643 42.0114 132.885 41.7462 133.192 41.5455C133.499 41.3447 133.847 41.1932 134.237 41.0909C134.631 40.9886 135.044 40.9167 135.476 40.875C135.983 40.822 136.393 40.7727 136.703 40.7273C137.014 40.678 137.239 40.6061 137.379 40.5114C137.519 40.4167 137.589 40.2765 137.589 40.0909V40.0568C137.589 39.697 137.476 39.4186 137.249 39.2216C137.025 39.0246 136.707 38.9261 136.294 38.9261C135.858 38.9261 135.512 39.0227 135.254 39.2159C134.997 39.4053 134.826 39.6439 134.743 39.9318L132.504 39.75C132.618 39.2197 132.841 38.7614 133.175 38.375C133.508 37.9848 133.938 37.6856 134.464 37.4773C134.995 37.2652 135.608 37.1591 136.305 37.1591C136.79 37.1591 137.254 37.2159 137.697 37.3295C138.144 37.4432 138.54 37.6193 138.885 37.858C139.233 38.0966 139.508 38.4034 139.709 38.7784C139.91 39.1496 140.01 39.5947 140.01 40.1136V46H137.714V44.7898H137.646C137.506 45.0625 137.319 45.303 137.084 45.5114C136.849 45.7159 136.567 45.8769 136.237 45.9943C135.908 46.108 135.527 46.1648 135.095 46.1648ZM135.788 44.4943C136.144 44.4943 136.459 44.4242 136.732 44.2841C137.004 44.1402 137.218 43.947 137.374 43.7045C137.529 43.4621 137.607 43.1875 137.607 42.8807V41.9545C137.531 42.0038 137.427 42.0492 137.294 42.0909C137.165 42.1288 137.019 42.1648 136.857 42.1989C136.694 42.2292 136.531 42.2576 136.368 42.2841C136.205 42.3068 136.057 42.3277 135.925 42.3466C135.641 42.3883 135.393 42.4545 135.18 42.5455C134.968 42.6364 134.804 42.7595 134.686 42.9148C134.569 43.0663 134.51 43.2557 134.51 43.483C134.51 43.8125 134.629 44.0644 134.868 44.2386C135.11 44.4091 135.417 44.4943 135.788 44.4943ZM144.308 34.3636V46H141.888V34.3636H144.308ZM150.224 46.1705C149.327 46.1705 148.554 45.9886 147.906 45.625C147.262 45.2576 146.766 44.7386 146.418 44.0682C146.069 43.3939 145.895 42.5966 145.895 41.6761C145.895 40.7784 146.069 39.9905 146.418 39.3125C146.766 38.6345 147.257 38.1061 147.889 37.7273C148.526 37.3485 149.272 37.1591 150.128 37.1591C150.704 37.1591 151.24 37.2519 151.736 37.4375C152.236 37.6193 152.671 37.8939 153.043 38.2614C153.418 38.6288 153.709 39.0909 153.918 39.6477C154.126 40.2008 154.23 40.8485 154.23 41.5909V42.2557H146.861V40.7557H151.952C151.952 40.4072 151.876 40.0985 151.724 39.8295C151.573 39.5606 151.363 39.3504 151.094 39.1989C150.829 39.0436 150.52 38.9659 150.168 38.9659C149.8 38.9659 149.474 39.0511 149.19 39.2216C148.91 39.3883 148.69 39.6136 148.531 39.8977C148.372 40.178 148.291 40.4905 148.287 40.8352V42.2614C148.287 42.6932 148.366 43.0663 148.526 43.3807C148.688 43.6951 148.918 43.9375 149.213 44.108C149.509 44.2784 149.859 44.3636 150.264 44.3636C150.533 44.3636 150.779 44.3258 151.003 44.25C151.226 44.1742 151.418 44.0606 151.577 43.9091C151.736 43.7576 151.857 43.572 151.94 43.3523L154.179 43.5C154.065 44.0379 153.832 44.5076 153.48 44.9091C153.132 45.3068 152.681 45.6174 152.128 45.8409C151.579 46.0606 150.944 46.1705 150.224 46.1705ZM163.071 39.7614L160.855 39.8977C160.817 39.7083 160.736 39.5379 160.611 39.3864C160.486 39.2311 160.321 39.108 160.116 39.017C159.916 38.9223 159.675 38.875 159.395 38.875C159.02 38.875 158.704 38.9545 158.446 39.1136C158.188 39.2689 158.06 39.4773 158.06 39.7386C158.06 39.947 158.143 40.1231 158.31 40.267C158.476 40.411 158.762 40.5265 159.168 40.6136L160.747 40.9318C161.596 41.1061 162.228 41.3864 162.645 41.7727C163.062 42.1591 163.27 42.6667 163.27 43.2955C163.27 43.8674 163.101 44.3693 162.764 44.8011C162.431 45.233 161.973 45.5701 161.389 45.8125C160.81 46.0511 160.141 46.1705 159.384 46.1705C158.228 46.1705 157.308 45.9299 156.622 45.4489C155.94 44.964 155.541 44.3049 155.423 43.4716L157.804 43.3466C157.876 43.6989 158.05 43.9678 158.327 44.1534C158.603 44.3352 158.957 44.4261 159.389 44.4261C159.813 44.4261 160.154 44.3447 160.412 44.1818C160.673 44.0152 160.806 43.8011 160.81 43.5398C160.806 43.3201 160.713 43.1402 160.531 43C160.349 42.8561 160.069 42.7462 159.69 42.6705L158.179 42.3693C157.327 42.1989 156.692 41.9034 156.276 41.483C155.863 41.0625 155.656 40.5265 155.656 39.875C155.656 39.3144 155.808 38.8314 156.111 38.4261C156.418 38.0208 156.848 37.7083 157.401 37.4886C157.957 37.2689 158.609 37.1591 159.355 37.1591C160.457 37.1591 161.325 37.392 161.957 37.858C162.594 38.3239 162.965 38.9583 163.071 39.7614Z" fill="#131523"/>
<g clip-path="url(#clip9_0_1901)">
<path d="M30.4659 108.818V119H29.233V108.818H30.4659ZM36.1 111.364V112.358H32.1426V111.364H36.1ZM33.296 109.534H34.4693V116.812C34.4693 117.144 34.5173 117.393 34.6135 117.558C34.7129 117.721 34.8388 117.83 34.9913 117.886C35.1471 117.939 35.3111 117.966 35.4835 117.966C35.6127 117.966 35.7188 117.959 35.8017 117.946C35.8845 117.929 35.9508 117.916 36.0005 117.906L36.2392 118.96C36.1596 118.99 36.0486 119.02 35.9061 119.05C35.7636 119.083 35.5829 119.099 35.3642 119.099C35.0327 119.099 34.7079 119.028 34.3897 118.886C34.0749 118.743 33.813 118.526 33.6042 118.234C33.3987 117.943 33.296 117.575 33.296 117.131V109.534ZM40.9846 119.159C40.2488 119.159 39.6141 118.997 39.0804 118.672C38.5501 118.344 38.1408 117.886 37.8525 117.3C37.5674 116.71 37.4249 116.024 37.4249 115.241C37.4249 114.459 37.5674 113.77 37.8525 113.173C38.1408 112.573 38.5418 112.106 39.0556 111.771C39.5726 111.433 40.1758 111.264 40.8652 111.264C41.263 111.264 41.6557 111.33 42.0435 111.463C42.4313 111.596 42.7843 111.811 43.1025 112.109C43.4206 112.404 43.6742 112.795 43.8631 113.283C44.052 113.77 44.1465 114.37 44.1465 115.082V115.58H38.2601V114.565H42.9533C42.9533 114.134 42.8671 113.75 42.6948 113.412C42.5257 113.074 42.2838 112.807 41.9689 112.612C41.6574 112.416 41.2895 112.318 40.8652 112.318C40.3979 112.318 39.9935 112.434 39.6522 112.666C39.3141 112.895 39.0539 113.193 38.8716 113.561C38.6893 113.929 38.5982 114.323 38.5982 114.744V115.42C38.5982 115.997 38.6976 116.486 38.8965 116.887C39.0987 117.285 39.3787 117.588 39.7367 117.797C40.0946 118.002 40.5106 118.105 40.9846 118.105C41.2928 118.105 41.5712 118.062 41.8198 117.976C42.0717 117.886 42.2888 117.754 42.4711 117.578C42.6534 117.399 42.7942 117.177 42.8936 116.912L44.0272 117.23C43.9078 117.615 43.7073 117.953 43.4256 118.244C43.1439 118.533 42.7959 118.758 42.3816 118.92C41.9673 119.08 41.5016 119.159 40.9846 119.159ZM45.9313 119V111.364H47.0648V112.557H47.1642C47.3233 112.149 47.5802 111.833 47.9348 111.607C48.2895 111.379 48.7154 111.264 49.2125 111.264C49.7163 111.264 50.1356 111.379 50.4703 111.607C50.8084 111.833 51.0719 112.149 51.2608 112.557H51.3404C51.5359 112.162 51.8292 111.849 52.2203 111.617C52.6114 111.382 53.0804 111.264 53.6273 111.264C54.3101 111.264 54.8685 111.478 55.3027 111.906C55.7369 112.33 55.954 112.991 55.954 113.889V119H54.7807V113.889C54.7807 113.326 54.6266 112.923 54.3184 112.681C54.0101 112.439 53.6472 112.318 53.2296 112.318C52.6926 112.318 52.2767 112.481 51.9817 112.805C51.6867 113.127 51.5392 113.535 51.5392 114.028V119H50.3461V113.77C50.3461 113.336 50.2052 112.986 49.9235 112.721C49.6417 112.452 49.2788 112.318 48.8347 112.318C48.5298 112.318 48.2447 112.399 47.9796 112.562C47.7177 112.724 47.5056 112.95 47.3432 113.238C47.1841 113.523 47.1046 113.853 47.1046 114.227V119H45.9313ZM63.5083 113.074L62.4544 113.372C62.3881 113.196 62.2903 113.026 62.161 112.86C62.0351 112.691 61.8627 112.552 61.644 112.442C61.4252 112.333 61.1452 112.278 60.8038 112.278C60.3365 112.278 59.947 112.386 59.6355 112.602C59.3272 112.814 59.1731 113.084 59.1731 113.412C59.1731 113.704 59.2792 113.934 59.4913 114.103C59.7034 114.272 60.0349 114.413 60.4856 114.526L61.6191 114.804C62.3019 114.97 62.8107 115.223 63.1454 115.565C63.4802 115.903 63.6475 116.339 63.6475 116.872C63.6475 117.31 63.5216 117.701 63.2697 118.045C63.0211 118.39 62.6731 118.662 62.2257 118.861C61.7782 119.06 61.2579 119.159 60.6646 119.159C59.8857 119.159 59.2411 118.99 58.7306 118.652C58.2202 118.314 57.8971 117.82 57.7612 117.17L58.8748 116.892C58.9809 117.303 59.1814 117.611 59.4764 117.817C59.7747 118.022 60.1641 118.125 60.6447 118.125C61.1916 118.125 61.6258 118.009 61.9473 117.777C62.2721 117.542 62.4345 117.26 62.4345 116.932C62.4345 116.667 62.3417 116.445 62.1561 116.266C61.9705 116.083 61.6854 115.947 61.301 115.858L60.0282 115.56C59.3289 115.394 58.8152 115.137 58.487 114.789C58.1622 114.438 57.9998 113.999 57.9998 113.472C57.9998 113.041 58.1208 112.66 58.3627 112.328C58.608 111.997 58.9411 111.737 59.362 111.548C59.7863 111.359 60.2669 111.264 60.8038 111.264C61.5595 111.264 62.1528 111.43 62.5836 111.761C63.0178 112.093 63.3261 112.53 63.5083 113.074ZM75.0785 111.364C75.0188 110.86 74.7769 110.469 74.3526 110.19C73.9284 109.912 73.408 109.773 72.7915 109.773C72.3408 109.773 71.9464 109.846 71.6083 109.991C71.2736 110.137 71.0117 110.338 70.8228 110.593C70.6372 110.848 70.5444 111.138 70.5444 111.463C70.5444 111.735 70.609 111.969 70.7383 112.164C70.8709 112.356 71.0399 112.517 71.2454 112.646C71.4509 112.772 71.6663 112.877 71.8917 112.96C72.1171 113.039 72.3242 113.104 72.5131 113.153L73.5472 113.432C73.8124 113.501 74.1074 113.598 74.4322 113.72C74.7603 113.843 75.0735 114.01 75.3718 114.222C75.6734 114.431 75.922 114.7 76.1175 115.028C76.3131 115.356 76.4109 115.759 76.4109 116.236C76.4109 116.786 76.2667 117.283 75.9783 117.727C75.6933 118.171 75.2757 118.524 74.7255 118.786C74.1786 119.048 73.5141 119.179 72.7319 119.179C72.0027 119.179 71.3713 119.061 70.8377 118.826C70.3074 118.591 69.8898 118.263 69.5849 117.842C69.2833 117.421 69.1126 116.932 69.0728 116.375H70.3455C70.3787 116.759 70.5079 117.078 70.7333 117.33C70.962 117.578 71.2504 117.764 71.5984 117.886C71.9497 118.006 72.3275 118.065 72.7319 118.065C73.2025 118.065 73.6251 117.989 73.9996 117.837C74.3742 117.681 74.6708 117.465 74.8896 117.19C75.1083 116.912 75.2177 116.587 75.2177 116.216C75.2177 115.878 75.1232 115.603 74.9343 115.391C74.7454 115.179 74.4968 115.006 74.1886 114.874C73.8803 114.741 73.5472 114.625 73.1893 114.526L71.9364 114.168C71.141 113.939 70.5112 113.612 70.0472 113.188C69.5832 112.764 69.3512 112.209 69.3512 111.523C69.3512 110.953 69.5053 110.455 69.8136 110.031C70.1251 109.604 70.5427 109.272 71.0664 109.037C71.5934 108.798 72.1817 108.679 72.8313 108.679C73.4876 108.679 74.0709 108.797 74.5813 109.032C75.0917 109.264 75.4961 109.582 75.7944 109.987C76.096 110.391 76.2551 110.85 76.2717 111.364H75.0785ZM81.3812 119.159C80.6918 119.159 80.0869 118.995 79.5666 118.667C79.0495 118.339 78.6452 117.88 78.3535 117.29C78.0652 116.7 77.921 116.01 77.921 115.222C77.921 114.426 78.0652 113.732 78.3535 113.138C78.6452 112.545 79.0495 112.085 79.5666 111.756C80.0869 111.428 80.6918 111.264 81.3812 111.264C82.0706 111.264 82.6738 111.428 83.1909 111.756C83.7112 112.085 84.1156 112.545 84.4039 113.138C84.6956 113.732 84.8414 114.426 84.8414 115.222C84.8414 116.01 84.6956 116.7 84.4039 117.29C84.1156 117.88 83.7112 118.339 83.1909 118.667C82.6738 118.995 82.0706 119.159 81.3812 119.159ZM81.3812 118.105C81.9049 118.105 82.3358 117.971 82.6738 117.702C83.0119 117.434 83.2621 117.081 83.4245 116.643C83.5869 116.206 83.6681 115.732 83.6681 115.222C83.6681 114.711 83.5869 114.236 83.4245 113.795C83.2621 113.354 83.0119 112.998 82.6738 112.726C82.3358 112.454 81.9049 112.318 81.3812 112.318C80.8575 112.318 80.4267 112.454 80.0886 112.726C79.7505 112.998 79.5003 113.354 79.3379 113.795C79.1755 114.236 79.0943 114.711 79.0943 115.222C79.0943 115.732 79.1755 116.206 79.3379 116.643C79.5003 117.081 79.7505 117.434 80.0886 117.702C80.4267 117.971 80.8575 118.105 81.3812 118.105ZM87.8058 108.818V119H86.6325V108.818H87.8058ZM92.8382 119.159C92.2019 119.159 91.6401 118.998 91.1529 118.677C90.6657 118.352 90.2845 117.895 90.0094 117.305C89.7343 116.711 89.5968 116.01 89.5968 115.202C89.5968 114.4 89.7343 113.704 90.0094 113.114C90.2845 112.524 90.6673 112.068 91.1578 111.746C91.6484 111.425 92.2151 111.264 92.8581 111.264C93.3553 111.264 93.748 111.347 94.0364 111.513C94.3281 111.675 94.5501 111.861 94.7026 112.07C94.8584 112.275 94.9793 112.444 95.0655 112.577H95.165V108.818H96.3382V119H95.2047V117.827H95.0655C94.9793 117.966 94.8567 118.142 94.6976 118.354C94.5385 118.562 94.3115 118.75 94.0165 118.915C93.7215 119.078 93.3288 119.159 92.8382 119.159ZM92.9973 118.105C93.468 118.105 93.8657 117.982 94.1905 117.737C94.5153 117.489 94.7623 117.146 94.9313 116.708C95.1003 116.267 95.1848 115.759 95.1848 115.182C95.1848 114.612 95.102 114.113 94.9363 113.685C94.7705 113.254 94.5253 112.92 94.2005 112.681C93.8757 112.439 93.4746 112.318 92.9973 112.318C92.5002 112.318 92.0859 112.446 91.7544 112.701C91.4263 112.953 91.1794 113.296 91.0137 113.73C90.8513 114.161 90.7701 114.645 90.7701 115.182C90.7701 115.725 90.8529 116.219 91.0186 116.663C91.1877 117.104 91.4363 117.455 91.7644 117.717C92.0958 117.976 92.5068 118.105 92.9973 118.105Z" fill="#5A607F"/>
<path d="M35.5071 82.4545V97H32.4318V85.3736H32.3466L29.0156 87.4616V84.7344L32.6165 82.4545H35.5071ZM41.4996 95.0114L41.4215 95.7926C41.36 96.4176 41.2416 97.0402 41.0664 97.6605C40.896 98.2855 40.716 98.8513 40.5266 99.358C40.342 99.8646 40.1928 100.262 40.0792 100.551H38.119C38.19 100.272 38.2871 99.8812 38.4102 99.3793C38.5333 98.8821 38.6493 98.3234 38.7582 97.7031C38.8671 97.0829 38.9357 96.4508 38.9641 95.8068L38.9996 95.0114H41.4996ZM44.2376 97V94.7841L49.4151 89.9901C49.8555 89.5639 50.2248 89.1804 50.5231 88.8395C50.8261 88.4986 51.0558 88.1648 51.212 87.8381C51.3683 87.5066 51.4464 87.1491 51.4464 86.7656C51.4464 86.3395 51.3493 85.9725 51.1552 85.6648C50.9611 85.3523 50.6959 85.1132 50.3597 84.9474C50.0236 84.777 49.6424 84.6918 49.2163 84.6918C48.7712 84.6918 48.3829 84.7817 48.0515 84.9616C47.7201 85.1416 47.4644 85.3996 47.2844 85.7358C47.1045 86.072 47.0146 86.4721 47.0146 86.9361H44.0955C44.0955 85.9844 44.311 85.1581 44.7418 84.4574C45.1727 83.7566 45.7764 83.2145 46.5529 82.831C47.3294 82.4474 48.2243 82.2557 49.2376 82.2557C50.2792 82.2557 51.186 82.4403 51.9577 82.8097C52.7343 83.1742 53.338 83.6809 53.7688 84.3295C54.1997 84.9782 54.4151 85.7216 54.4151 86.5597C54.4151 87.1089 54.3062 87.651 54.0884 88.1861C53.8754 88.7211 53.4942 89.3153 52.945 89.9688C52.3957 90.6174 51.6216 91.3963 50.6225 92.3054L48.4989 94.3864V94.4858H54.6069V97H44.2376ZM62.1477 97.1989C61.1439 97.1989 60.2491 97.0142 59.4631 96.6449C58.6818 96.2756 58.0616 95.7666 57.6023 95.1179C57.143 94.4692 56.9039 93.7259 56.8849 92.8878H59.8679C59.901 93.4512 60.1378 93.9081 60.5781 94.2585C61.0185 94.6089 61.5417 94.7841 62.1477 94.7841C62.6307 94.7841 63.0568 94.6776 63.4261 94.4645C63.8002 94.2467 64.0914 93.946 64.2997 93.5625C64.5128 93.1742 64.6193 92.7292 64.6193 92.2273C64.6193 91.7159 64.5104 91.2661 64.2926 90.8778C64.0795 90.4896 63.7836 90.1866 63.4048 89.9688C63.026 89.7509 62.5928 89.6397 62.1051 89.6349C61.679 89.6349 61.2647 89.7225 60.8622 89.8977C60.4645 90.0729 60.1544 90.312 59.9318 90.6151L57.1974 90.125L57.8864 82.4545H66.7784V84.9688H60.4219L60.0455 88.6122H60.1307C60.3864 88.2524 60.7723 87.9541 61.2884 87.7173C61.8045 87.4806 62.3821 87.3622 63.0213 87.3622C63.8973 87.3622 64.6785 87.5682 65.3651 87.9801C66.0516 88.392 66.5938 88.9579 66.9915 89.6776C67.3892 90.3925 67.5857 91.2164 67.581 92.1491C67.5857 93.1293 67.3584 94.0005 66.8991 94.7628C66.4446 95.5204 65.8078 96.117 64.9886 96.5526C64.1742 96.9834 63.2273 97.1989 62.1477 97.1989ZM74.9886 82.2557C75.7367 82.2557 76.4564 82.3812 77.1477 82.6321C77.8438 82.883 78.464 83.2831 79.0085 83.8324C79.5578 84.3816 79.991 85.1108 80.3082 86.0199C80.6302 86.9242 80.7936 88.0346 80.7983 89.3509C80.7983 90.5866 80.6586 91.6899 80.3793 92.6605C80.1046 93.6264 79.7093 94.4479 79.1932 95.125C78.6771 95.8021 78.0545 96.3182 77.3253 96.6733C76.5961 97.0237 75.7817 97.1989 74.8821 97.1989C73.9115 97.1989 73.0545 97.0118 72.3111 96.6378C71.5677 96.259 70.9688 95.7453 70.5142 95.0966C70.0644 94.4432 69.7921 93.7093 69.6974 92.8949H72.7301C72.8485 93.4252 73.0971 93.8371 73.4759 94.1307C73.8546 94.4195 74.3234 94.5639 74.8821 94.5639C75.8291 94.5639 76.5488 94.152 77.0412 93.3281C77.5336 92.4995 77.7822 91.3655 77.7869 89.9261H77.6875C77.4697 90.3523 77.1761 90.7192 76.8068 91.027C76.4375 91.33 76.0137 91.5644 75.5355 91.7301C75.062 91.8958 74.5578 91.9787 74.0227 91.9787C73.1657 91.9787 72.401 91.7775 71.7287 91.375C71.0563 90.9725 70.526 90.4186 70.1378 89.7131C69.7495 89.0076 69.5554 88.2027 69.5554 87.2983C69.5507 86.3229 69.7756 85.4541 70.2301 84.6918C70.6847 83.9295 71.3191 83.3329 72.1335 82.902C72.9527 82.4664 73.9044 82.2509 74.9886 82.2557ZM75.0099 84.6705C74.5317 84.6705 74.1056 84.7841 73.7315 85.0114C73.3622 85.2386 73.0687 85.544 72.8509 85.9276C72.6378 86.3111 72.5336 86.7396 72.5384 87.2131C72.5384 87.6913 72.6425 88.1222 72.8509 88.5057C73.0639 88.8845 73.3527 89.1875 73.7173 89.4148C74.0866 89.6373 74.508 89.7486 74.9815 89.7486C75.3366 89.7486 75.6657 89.6823 75.9688 89.5497C76.2718 89.4171 76.5346 89.2348 76.7571 89.0028C76.9844 88.7661 77.1619 88.4938 77.2898 88.1861C77.4176 87.8783 77.4815 87.5516 77.4815 87.206C77.4768 86.7467 77.3679 86.3253 77.1548 85.9418C76.9418 85.5582 76.6482 85.2505 76.2741 85.0185C75.9001 84.7865 75.4787 84.6705 75.0099 84.6705Z" fill="#131523"/>
</g>
<g clip-path="url(#clip10_0_1901)">
<path d="M29.233 187V176.818H32.6733C33.4688 176.818 34.1217 176.954 34.6321 177.226C35.1425 177.494 35.5204 177.864 35.7656 178.335C36.0109 178.805 36.1335 179.34 36.1335 179.94C36.1335 180.54 36.0109 181.072 35.7656 181.536C35.5204 182 35.1442 182.365 34.6371 182.63C34.13 182.892 33.482 183.023 32.6932 183.023H29.9091V181.909H32.6534C33.197 181.909 33.6345 181.83 33.9659 181.67C34.3007 181.511 34.5426 181.286 34.6918 180.994C34.8442 180.699 34.9205 180.348 34.9205 179.94C34.9205 179.533 34.8442 179.176 34.6918 178.871C34.5393 178.567 34.2957 178.331 33.9609 178.165C33.6262 177.996 33.1837 177.912 32.6335 177.912H30.4659V187H29.233ZM34.0256 182.426L36.5312 187H35.0994L32.6335 182.426H34.0256ZM41.1486 187.159C40.4128 187.159 39.7781 186.997 39.2445 186.672C38.7142 186.344 38.3049 185.886 38.0165 185.3C37.7315 184.71 37.589 184.024 37.589 183.241C37.589 182.459 37.7315 181.77 38.0165 181.173C38.3049 180.573 38.7059 180.106 39.2196 179.771C39.7367 179.433 40.3399 179.264 41.0293 179.264C41.427 179.264 41.8198 179.33 42.2076 179.463C42.5953 179.596 42.9483 179.811 43.2665 180.109C43.5847 180.404 43.8382 180.795 44.0272 181.283C44.2161 181.77 44.3105 182.37 44.3105 183.082V183.58H38.4242V182.565H43.1174C43.1174 182.134 43.0312 181.75 42.8588 181.412C42.6898 181.074 42.4479 180.807 42.133 180.612C41.8214 180.416 41.4535 180.318 41.0293 180.318C40.562 180.318 40.1576 180.434 39.8162 180.666C39.4782 180.895 39.218 181.193 39.0357 181.561C38.8534 181.929 38.7623 182.323 38.7623 182.744V183.42C38.7623 183.997 38.8617 184.486 39.0605 184.887C39.2627 185.285 39.5428 185.588 39.9007 185.797C40.2587 186.002 40.6747 186.105 41.1486 186.105C41.4569 186.105 41.7353 186.062 41.9838 185.976C42.2357 185.886 42.4528 185.754 42.6351 185.578C42.8174 185.399 42.9583 185.177 43.0577 184.912L44.1912 185.23C44.0719 185.615 43.8714 185.953 43.5897 186.244C43.3079 186.533 42.9599 186.758 42.5456 186.92C42.1313 187.08 41.6657 187.159 41.1486 187.159ZM52.1072 179.364L49.2834 187H48.0902L45.2663 179.364H46.5391L48.647 185.449H48.7266L50.8345 179.364H52.1072ZM56.5842 187.159C55.8484 187.159 55.2137 186.997 54.68 186.672C54.1497 186.344 53.7404 185.886 53.4521 185.3C53.167 184.71 53.0245 184.024 53.0245 183.241C53.0245 182.459 53.167 181.77 53.4521 181.173C53.7404 180.573 54.1415 180.106 54.6552 179.771C55.1722 179.433 55.7754 179.264 56.4648 179.264C56.8626 179.264 57.2553 179.33 57.6431 179.463C58.0309 179.596 58.3839 179.811 58.7021 180.109C59.0202 180.404 59.2738 180.795 59.4627 181.283C59.6516 181.77 59.7461 182.37 59.7461 183.082V183.58H53.8597V182.565H58.5529C58.5529 182.134 58.4667 181.75 58.2944 181.412C58.1254 181.074 57.8834 180.807 57.5685 180.612C57.257 180.416 56.8891 180.318 56.4648 180.318C55.9975 180.318 55.5932 180.434 55.2518 180.666C54.9137 180.895 54.6535 181.193 54.4712 181.561C54.2889 181.929 54.1978 182.323 54.1978 182.744V183.42C54.1978 183.997 54.2972 184.486 54.4961 184.887C54.6983 185.285 54.9783 185.588 55.3363 185.797C55.6942 186.002 56.1102 186.105 56.5842 186.105C56.8924 186.105 57.1708 186.062 57.4194 185.976C57.6713 185.886 57.8884 185.754 58.0707 185.578C58.253 185.399 58.3938 185.177 58.4933 184.912L59.6268 185.23C59.5075 185.615 59.3069 185.953 59.0252 186.244C58.7435 186.533 58.3955 186.758 57.9812 186.92C57.5669 187.08 57.1012 187.159 56.5842 187.159ZM62.7042 182.406V187H61.5309V179.364H62.6644V180.557H62.7638C62.9428 180.169 63.2146 179.857 63.5792 179.622C63.9438 179.384 64.4144 179.264 64.9911 179.264C65.5082 179.264 65.9606 179.37 66.3484 179.582C66.7362 179.791 67.0378 180.109 67.2532 180.537C67.4686 180.961 67.5763 181.498 67.5763 182.148V187H66.4031V182.227C66.4031 181.627 66.2473 181.16 65.9357 180.825C65.6242 180.487 65.1966 180.318 64.6531 180.318C64.2785 180.318 63.9438 180.399 63.6488 180.562C63.3571 180.724 63.1268 180.961 62.9577 181.273C62.7887 181.584 62.7042 181.962 62.7042 182.406ZM74.5328 183.878V179.364H75.7061V187H74.5328V185.707H74.4533C74.2743 186.095 73.9959 186.425 73.6181 186.697C73.2402 186.965 72.763 187.099 72.1863 187.099C71.709 187.099 71.2847 186.995 70.9135 186.786C70.5423 186.574 70.2507 186.256 70.0385 185.832C69.8264 185.404 69.7203 184.866 69.7203 184.216V179.364H70.8936V184.136C70.8936 184.693 71.0494 185.137 71.361 185.469C71.6758 185.8 72.0769 185.966 72.5641 185.966C72.8558 185.966 73.1524 185.891 73.454 185.742C73.7589 185.593 74.0141 185.364 74.2196 185.056C74.4284 184.748 74.5328 184.355 74.5328 183.878ZM81.0568 187.159C80.321 187.159 79.6863 186.997 79.1527 186.672C78.6224 186.344 78.2131 185.886 77.9247 185.3C77.6397 184.71 77.4972 184.024 77.4972 183.241C77.4972 182.459 77.6397 181.77 77.9247 181.173C78.2131 180.573 78.6141 180.106 79.1278 179.771C79.6449 179.433 80.2481 179.264 80.9375 179.264C81.3352 179.264 81.728 179.33 82.1158 179.463C82.5036 179.596 82.8565 179.811 83.1747 180.109C83.4929 180.404 83.7464 180.795 83.9354 181.283C84.1243 181.77 84.2188 182.37 84.2188 183.082V183.58H78.3324V182.565H83.0256C83.0256 182.134 82.9394 181.75 82.767 181.412C82.598 181.074 82.3561 180.807 82.0412 180.612C81.7296 180.416 81.3617 180.318 80.9375 180.318C80.4702 180.318 80.0658 180.434 79.7244 180.666C79.3864 180.895 79.1262 181.193 78.9439 181.561C78.7616 181.929 78.6705 182.323 78.6705 182.744V183.42C78.6705 183.997 78.7699 184.486 78.9688 184.887C79.1709 185.285 79.451 185.588 79.8089 185.797C80.1669 186.002 80.5829 186.105 81.0568 186.105C81.3651 186.105 81.6435 186.062 81.892 185.976C82.1439 185.886 82.361 185.754 82.5433 185.578C82.7256 185.399 82.8665 185.177 82.9659 184.912L84.0994 185.23C83.9801 185.615 83.7796 185.953 83.4979 186.244C83.2161 186.533 82.8681 186.758 82.4538 186.92C82.0395 187.08 81.5739 187.159 81.0568 187.159Z" fill="#5A607F"/>
<path d="M34.0653 166.818V148.636H35.2301V166.818H34.0653ZM37.1548 154.638C37.098 154.065 36.8542 153.62 36.4233 153.303C35.9924 152.985 35.4077 152.827 34.669 152.827C34.1671 152.827 33.7434 152.898 33.3977 153.04C33.0521 153.177 32.7869 153.369 32.6023 153.615C32.4223 153.861 32.3324 154.141 32.3324 154.453C32.3229 154.714 32.3774 154.941 32.4957 155.135C32.6188 155.329 32.7869 155.497 33 155.639C33.2131 155.777 33.4593 155.897 33.7386 156.001C34.018 156.101 34.3163 156.186 34.6335 156.257L35.9403 156.57C36.5748 156.712 37.1572 156.901 37.6875 157.138C38.2178 157.375 38.6771 157.666 39.0653 158.011C39.4536 158.357 39.7543 158.764 39.9673 159.233C40.1851 159.702 40.2964 160.239 40.3011 160.845C40.2964 161.735 40.0691 162.507 39.6193 163.161C39.1742 163.809 38.5303 164.313 37.6875 164.673C36.8494 165.028 35.8385 165.206 34.6548 165.206C33.4806 165.206 32.4579 165.026 31.5866 164.666C30.7202 164.306 30.0431 163.774 29.5554 163.068C29.0724 162.358 28.8191 161.48 28.7955 160.433H31.7713C31.8045 160.921 31.9441 161.328 32.1903 161.655C32.4413 161.977 32.7751 162.221 33.1918 162.386C33.6132 162.547 34.089 162.628 34.6193 162.628C35.1402 162.628 35.5923 162.552 35.9759 162.401C36.3641 162.249 36.6648 162.038 36.8778 161.768C37.0909 161.499 37.1974 161.188 37.1974 160.838C37.1974 160.511 37.1004 160.237 36.9062 160.014C36.7169 159.792 36.4375 159.602 36.0682 159.446C35.7036 159.29 35.2562 159.148 34.7259 159.02L33.142 158.622C31.9157 158.324 30.9474 157.857 30.2372 157.223C29.527 156.589 29.1742 155.734 29.179 154.659C29.1742 153.778 29.4086 153.009 29.8821 152.351C30.3603 151.693 31.0161 151.179 31.8494 150.81C32.6828 150.44 33.6297 150.256 34.6903 150.256C35.7699 150.256 36.7121 150.44 37.517 150.81C38.3267 151.179 38.9564 151.693 39.4062 152.351C39.8561 153.009 40.0881 153.771 40.1023 154.638H37.1548ZM48.6126 150.455V165H45.5373V153.374H45.4521L42.1211 155.462V152.734L45.7219 150.455H48.6126ZM52.0696 165V162.784L57.2472 157.99C57.6875 157.564 58.0568 157.18 58.3551 156.839C58.6581 156.499 58.8878 156.165 59.044 155.838C59.2003 155.507 59.2784 155.149 59.2784 154.766C59.2784 154.339 59.1813 153.973 58.9872 153.665C58.7931 153.352 58.5279 153.113 58.1918 152.947C57.8556 152.777 57.4744 152.692 57.0483 152.692C56.6032 152.692 56.215 152.782 55.8835 152.962C55.5521 153.142 55.2964 153.4 55.1165 153.736C54.9366 154.072 54.8466 154.472 54.8466 154.936H51.9276C51.9276 153.984 52.143 153.158 52.5739 152.457C53.0047 151.757 53.6084 151.214 54.3849 150.831C55.1615 150.447 56.0563 150.256 57.0696 150.256C58.1113 150.256 59.018 150.44 59.7898 150.81C60.5663 151.174 61.17 151.681 61.6009 152.33C62.0317 152.978 62.2472 153.722 62.2472 154.56C62.2472 155.109 62.1383 155.651 61.9205 156.186C61.7074 156.721 61.3262 157.315 60.777 157.969C60.2277 158.617 59.4536 159.396 58.4545 160.305L56.331 162.386V162.486H62.4389V165H52.0696ZM67.984 163.011L67.9059 163.793C67.8443 164.418 67.726 165.04 67.5508 165.661C67.3803 166.286 67.2004 166.851 67.011 167.358C66.8263 167.865 66.6772 168.262 66.5636 168.551H64.6033C64.6744 168.272 64.7714 167.881 64.8945 167.379C65.0176 166.882 65.1336 166.323 65.2425 165.703C65.3514 165.083 65.4201 164.451 65.4485 163.807L65.484 163.011H67.984ZM75.9173 165.199C74.9135 165.199 74.0186 165.014 73.2326 164.645C72.4513 164.276 71.8311 163.767 71.3718 163.118C70.9125 162.469 70.6734 161.726 70.6545 160.888H73.6374C73.6706 161.451 73.9073 161.908 74.3477 162.259C74.788 162.609 75.3112 162.784 75.9173 162.784C76.4002 162.784 76.8263 162.678 77.1957 162.464C77.5697 162.247 77.8609 161.946 78.0692 161.562C78.2823 161.174 78.3888 160.729 78.3888 160.227C78.3888 159.716 78.2799 159.266 78.0621 158.878C77.8491 158.49 77.5531 158.187 77.1744 157.969C76.7956 157.751 76.3623 157.64 75.8746 157.635C75.4485 157.635 75.0342 157.723 74.6317 157.898C74.234 158.073 73.9239 158.312 73.7013 158.615L70.967 158.125L71.6559 150.455H80.5479V152.969H74.1914L73.815 156.612H73.9002C74.1559 156.252 74.5418 155.954 75.0579 155.717C75.574 155.481 76.1516 155.362 76.7908 155.362C77.6668 155.362 78.448 155.568 79.1346 155.98C79.8211 156.392 80.3633 156.958 80.761 157.678C81.1587 158.393 81.3552 159.216 81.3505 160.149C81.3552 161.129 81.128 162 80.6687 162.763C80.2141 163.52 79.5773 164.117 78.7582 164.553C77.9438 164.983 76.9968 165.199 75.9173 165.199ZM83.2752 162.443V160.021L89.3477 150.455H91.4357V153.807H90.1999L86.3718 159.865V159.979H95.0011V162.443H83.2752ZM90.2567 165V161.705L90.3136 160.632V150.455H93.1971V165H90.2567ZM102.632 165.199C101.884 165.194 101.162 165.069 100.466 164.822C99.775 164.576 99.1547 164.176 98.6055 163.622C98.0562 163.068 97.6206 162.334 97.2987 161.42C96.9814 160.507 96.8228 159.384 96.8228 158.054C96.8275 156.832 96.9672 155.741 97.2418 154.78C97.5212 153.814 97.9189 152.995 98.435 152.322C98.9558 151.65 99.5785 151.139 100.303 150.788C101.027 150.433 101.839 150.256 102.739 150.256C103.71 150.256 104.567 150.445 105.31 150.824C106.053 151.198 106.65 151.707 107.1 152.351C107.554 152.995 107.829 153.717 107.924 154.517H104.891C104.773 154.01 104.524 153.613 104.145 153.324C103.766 153.035 103.298 152.891 102.739 152.891C101.792 152.891 101.072 153.303 100.58 154.126C100.092 154.95 99.8436 156.07 99.8342 157.486H99.9336C100.151 157.055 100.445 156.688 100.814 156.385C101.188 156.077 101.612 155.843 102.086 155.682C102.564 155.516 103.068 155.433 103.598 155.433C104.46 155.433 105.227 155.637 105.9 156.044C106.572 156.446 107.102 157 107.49 157.706C107.879 158.411 108.073 159.219 108.073 160.128C108.073 161.113 107.843 161.989 107.384 162.756C106.929 163.523 106.292 164.124 105.473 164.56C104.659 164.991 103.712 165.204 102.632 165.199ZM102.618 162.784C103.092 162.784 103.516 162.67 103.89 162.443C104.264 162.216 104.557 161.908 104.77 161.52C104.983 161.132 105.09 160.696 105.09 160.213C105.09 159.73 104.983 159.297 104.77 158.913C104.562 158.53 104.273 158.224 103.904 157.997C103.534 157.77 103.113 157.656 102.64 157.656C102.284 157.656 101.955 157.723 101.652 157.855C101.354 157.988 101.091 158.172 100.864 158.409C100.641 158.646 100.466 158.92 100.338 159.233C100.211 159.541 100.147 159.87 100.147 160.22C100.147 160.689 100.253 161.117 100.466 161.506C100.684 161.894 100.978 162.204 101.347 162.436C101.721 162.668 102.145 162.784 102.618 162.784Z" fill="#131523"/>
</g>
<rect x="28" y="222" width="199" height="1" fill="#E6E9F4"/>
</g>
<defs>
<filter id="filter0_d_0_1901" x="-4" y="-3" width="263" height="477" filterUnits="userSpaceOnUse" color-interpolation-filters="sRGB">
<feFlood flood-opacity="0" result="BackgroundImageFix"/>
<feColorMatrix in="SourceAlpha" type="matrix" values="0 0 0 0 0 0 0 0 0 0 0 0 0 0 0 0 0 0 127 0" result="hardAlpha"/>
<feOffset dy="1"/>
<feGaussianBlur stdDeviation="2"/>
<feColorMatrix type="matrix" values="0 0 0 0 0.0823529 0 0 0 0 0.133333 0 0 0 0 0.196078 0 0 0 0.08 0"/>
<feBlend mode="normal" in2="BackgroundImageFix" result="effect1_dropShadow_0_1901"/>
<feBlend mode="normal" in="SourceGraphic" in2="effect1_dropShadow_0_1901" result="shape"/>
</filter>
<clipPath id="clip0_0_1901">
<rect width="255" height="469" fill="white"/>
</clipPath>
<clipPath id="clip1_0_1901">
<rect width="28" height="101" fill="white" transform="translate(28 346)"/>
</clipPath>
<clipPath id="clip2_0_1901">
<rect width="28" height="128" fill="white" transform="translate(56 319)"/>
</clipPath>
<clipPath id="clip3_0_1901">
<rect width="28" height="115" fill="white" transform="translate(84 332)"/>
</clipPath>
<clipPath id="clip4_0_1901">
<rect width="28" height="130" fill="white" transform="translate(112 317)"/>
</clipPath>
<clipPath id="clip5_0_1901">
<rect width="28" height="162" fill="white" transform="translate(140 285)"/>
</clipPath>
<clipPath id="clip6_0_1901">
<rect width="28" height="194" fill="white" transform="translate(168 253)"/>
</clipPath>
<clipPath id="clip7_0_1901">
<rect width="28" height="184" fill="white" transform="translate(196 263)"/>
</clipPath>
<clipPath id="clip8_0_1901">
<rect width="68" height="46" fill="white" transform="translate(92 265)"/>
</clipPath>
<clipPath id="clip9_0_1901">
<rect width="70" height="48" fill="white" transform="translate(28 76)"/>
</clipPath>
<clipPath id="clip10_0_1901">
<rect width="82" height="48" fill="white" transform="translate(28 144)"/>
</clipPath>
</defs>
</svg>
