<svg width="1110" height="136" viewBox="0 0 1110 136" fill="none" xmlns="http://www.w3.org/2000/svg">
<g clip-path="url(#clip0_0_1683)">
<g filter="url(#filter0_d_0_1683)">
<path fill-rule="evenodd" clip-rule="evenodd" d="M0 6C0 2.68629 2.68629 0 6 0H1104C1107.31 0 1110 2.68629 1110 6V130C1110 133.314 1107.31 136 1104 136H6.00002C2.68631 136 0 133.314 0 130V6Z" fill="white"/>
</g>
<rect x="269" width="1" height="136" fill="#E6E9F4"/>
<rect x="554" width="1" height="136" fill="#E6E9F4"/>
<rect x="839" width="1" height="136" fill="#E6E9F4"/>
<circle cx="199" cy="68" r="28" fill="#ECF2FF"/>
<path fill-rule="evenodd" clip-rule="evenodd" d="M199 59C199.552 59 200 59.4477 200 60L200.001 60.0903C202.194 60.4914 203.889 62.1853 203.995 64.2915L204 64.5H202C202 63.4338 201.178 62.491 200.001 62.1428L200.001 67.0903C202.266 67.5046 204 69.2978 204 71.5C204 73.7022 202.266 75.4954 200.001 75.9097L200 76C200 76.5523 199.552 77 199 77C198.448 77 198 76.5523 198 76L198 75.9099C195.807 75.5091 194.111 73.815 194.005 71.7085L194 71.5H196C196 72.5665 196.823 73.5095 198 73.8575L198 68.9099C195.735 68.4959 194 66.7025 194 64.5C194 62.2975 195.735 60.5041 198 60.0901L198 60C198 59.4477 198.448 59 199 59ZM200.001 69.1428L200.001 73.8572C201.178 73.509 202 72.5662 202 71.5C202 70.4337 201.178 69.491 200.001 69.1428ZM196 64.5C196 65.5666 196.823 66.5096 198 66.8575L198 62.1425C196.823 62.4905 196 63.4335 196 64.5Z" fill="#1E5EFF"/>
<g clip-path="url(#clip1_0_1683)">
<path d="M28.6761 61.9119V60.8182H36.3125V61.9119H33.1108V71H31.8778V61.9119H28.6761ZM40.0511 71.1591C39.3617 71.1591 38.7569 70.995 38.2365 70.6669C37.7195 70.3388 37.3151 69.8797 37.0234 69.2898C36.7351 68.6998 36.5909 68.0104 36.5909 67.2216C36.5909 66.4261 36.7351 65.7318 37.0234 65.1385C37.3151 64.5452 37.7195 64.0845 38.2365 63.7564C38.7569 63.4283 39.3617 63.2642 40.0511 63.2642C40.7405 63.2642 41.3438 63.4283 41.8608 63.7564C42.3812 64.0845 42.7855 64.5452 43.0739 65.1385C43.3655 65.7318 43.5114 66.4261 43.5114 67.2216C43.5114 68.0104 43.3655 68.6998 43.0739 69.2898C42.7855 69.8797 42.3812 70.3388 41.8608 70.6669C41.3438 70.995 40.7405 71.1591 40.0511 71.1591ZM40.0511 70.1051C40.5748 70.1051 41.0057 69.9709 41.3438 69.7024C41.6818 69.4339 41.9321 69.081 42.0945 68.6435C42.2569 68.206 42.3381 67.732 42.3381 67.2216C42.3381 66.7112 42.2569 66.2356 42.0945 65.7947C41.9321 65.3539 41.6818 64.9976 41.3438 64.7259C41.0057 64.4541 40.5748 64.3182 40.0511 64.3182C39.5275 64.3182 39.0966 64.4541 38.7585 64.7259C38.4205 64.9976 38.1702 65.3539 38.0078 65.7947C37.8454 66.2356 37.7642 66.7112 37.7642 67.2216C37.7642 67.732 37.8454 68.206 38.0078 68.6435C38.1702 69.081 38.4205 69.4339 38.7585 69.7024C39.0966 69.9709 39.5275 70.1051 40.0511 70.1051ZM48.6234 63.3636V64.358H44.666V63.3636H48.6234ZM45.8194 61.5341H46.9927V68.8125C46.9927 69.1439 47.0408 69.3925 47.1369 69.5582C47.2363 69.7206 47.3623 69.83 47.5147 69.8864C47.6705 69.9394 47.8346 69.9659 48.0069 69.9659C48.1362 69.9659 48.2422 69.9593 48.3251 69.946C48.408 69.9295 48.4743 69.9162 48.524 69.9062L48.7626 70.9602C48.6831 70.9901 48.572 71.0199 48.4295 71.0497C48.287 71.0829 48.1064 71.0994 47.8876 71.0994C47.5562 71.0994 47.2314 71.0282 46.9132 70.8857C46.5983 70.7431 46.3365 70.526 46.1277 70.2344C45.9222 69.9427 45.8194 69.5748 45.8194 69.1307V61.5341ZM52.6355 71.179C52.1516 71.179 51.7124 71.0878 51.318 70.9055C50.9236 70.7199 50.6104 70.4531 50.3784 70.1051C50.1464 69.7538 50.0304 69.3295 50.0304 68.8324C50.0304 68.3949 50.1165 68.0402 50.2889 67.7685C50.4612 67.4934 50.6916 67.2779 50.9799 67.1222C51.2683 66.9664 51.5865 66.8504 51.9345 66.7741C52.2858 66.6946 52.6388 66.6316 52.9934 66.5852C53.4574 66.5256 53.8336 66.4808 54.122 66.451C54.4136 66.4179 54.6258 66.3632 54.7583 66.2869C54.8942 66.2107 54.9622 66.0781 54.9622 65.8892V65.8494C54.9622 65.3589 54.8279 64.9777 54.5595 64.706C54.2943 64.4342 53.8916 64.2983 53.3514 64.2983C52.7913 64.2983 52.3521 64.4209 52.0339 64.6662C51.7157 64.9115 51.492 65.1733 51.3627 65.4517L50.2491 65.054C50.448 64.59 50.7131 64.2287 51.0446 63.9702C51.3793 63.7083 51.7439 63.526 52.1383 63.4233C52.536 63.3172 52.9271 63.2642 53.3116 63.2642C53.5569 63.2642 53.8386 63.294 54.1568 63.3537C54.4783 63.41 54.7882 63.5277 55.0865 63.7067C55.3881 63.8857 55.6383 64.1558 55.8372 64.517C56.036 64.8783 56.1355 65.3622 56.1355 65.9688V71H54.9622V69.9659H54.9025C54.823 70.1316 54.6904 70.3089 54.5048 70.4979C54.3192 70.6868 54.0723 70.8475 53.764 70.9801C53.4558 71.1127 53.0796 71.179 52.6355 71.179ZM52.8145 70.125C53.2785 70.125 53.6696 70.0339 53.9877 69.8516C54.3092 69.6693 54.5512 69.4339 54.7136 69.1456C54.8793 68.8572 54.9622 68.554 54.9622 68.2358V67.1619C54.9125 67.2216 54.8031 67.2763 54.6341 67.326C54.4683 67.3724 54.2761 67.4138 54.0574 67.4503C53.8419 67.4834 53.6315 67.5133 53.426 67.5398C53.2238 67.563 53.0597 67.5829 52.9338 67.5994C52.6288 67.6392 52.3438 67.7038 52.0787 67.7933C51.8168 67.8795 51.6047 68.0104 51.4423 68.1861C51.2832 68.3584 51.2037 68.5937 51.2037 68.892C51.2037 69.2997 51.3545 69.608 51.6561 69.8168C51.961 70.0223 52.3471 70.125 52.8145 70.125ZM59.4503 60.8182V71H58.277V60.8182H59.4503ZM65.6958 71V60.8182H69.1362C69.9316 60.8182 70.5846 60.9541 71.095 61.2259C71.6054 61.4943 71.9833 61.8639 72.2285 62.3345C72.4738 62.8052 72.5964 63.3404 72.5964 63.9403C72.5964 64.5402 72.4738 65.0722 72.2285 65.5362C71.9833 66.0002 71.6071 66.3648 71.1 66.63C70.5929 66.8918 69.9449 67.0227 69.1561 67.0227H66.372V65.9091H69.1163C69.6599 65.9091 70.0974 65.8295 70.4288 65.6705C70.7636 65.5114 71.0055 65.286 71.1547 64.9943C71.3071 64.6993 71.3833 64.348 71.3833 63.9403C71.3833 63.5327 71.3071 63.1764 71.1547 62.8714C71.0022 62.5665 70.7586 62.3312 70.4238 62.1655C70.0891 61.9964 69.6466 61.9119 69.0964 61.9119H66.9288V71H65.6958ZM70.4885 66.4261L72.9941 71H71.5623L69.0964 66.4261H70.4885ZM77.6115 71.1591C76.8757 71.1591 76.241 70.9967 75.7074 70.6719C75.1771 70.3438 74.7678 69.8864 74.4794 69.2997C74.1944 68.7098 74.0518 68.0237 74.0518 67.2415C74.0518 66.4593 74.1944 65.7699 74.4794 65.1733C74.7678 64.5734 75.1688 64.1061 75.6825 63.7713C76.1996 63.4332 76.8028 63.2642 77.4922 63.2642C77.8899 63.2642 78.2827 63.3305 78.6705 63.4631C79.0582 63.5956 79.4112 63.8111 79.7294 64.1094C80.0476 64.4044 80.3011 64.7955 80.4901 65.2827C80.679 65.7699 80.7734 66.3698 80.7734 67.0824V67.5795H74.8871V66.5653H79.5803C79.5803 66.1345 79.4941 65.75 79.3217 65.4119C79.1527 65.0739 78.9107 64.8071 78.5959 64.6115C78.2843 64.416 77.9164 64.3182 77.4922 64.3182C77.0249 64.3182 76.6205 64.4342 76.2791 64.6662C75.9411 64.8949 75.6809 65.1932 75.4986 65.5611C75.3163 65.929 75.2251 66.3234 75.2251 66.7443V67.4205C75.2251 67.9972 75.3246 68.486 75.5234 68.8871C75.7256 69.2848 76.0057 69.5881 76.3636 69.7969C76.7216 70.0024 77.1375 70.1051 77.6115 70.1051C77.9197 70.1051 78.1982 70.062 78.4467 69.9759C78.6986 69.8864 78.9157 69.7538 79.098 69.5781C79.2803 69.3991 79.4212 69.1771 79.5206 68.9119L80.6541 69.2301C80.5348 69.6146 80.3343 69.9527 80.0526 70.2443C79.7708 70.5327 79.4228 70.758 79.0085 70.9205C78.5942 71.0795 78.1286 71.1591 77.6115 71.1591ZM88.5701 63.3636L85.7463 71H84.5531L81.7292 63.3636H83.002L85.1099 69.4489H85.1895L87.2974 63.3636H88.5701ZM93.0471 71.1591C92.3113 71.1591 91.6766 70.9967 91.1429 70.6719C90.6126 70.3438 90.2033 69.8864 89.915 69.2997C89.6299 68.7098 89.4874 68.0237 89.4874 67.2415C89.4874 66.4593 89.6299 65.7699 89.915 65.1733C90.2033 64.5734 90.6043 64.1061 91.1181 63.7713C91.6351 63.4332 92.2383 63.2642 92.9277 63.2642C93.3255 63.2642 93.7182 63.3305 94.106 63.4631C94.4938 63.5956 94.8468 63.8111 95.165 64.1094C95.4831 64.4044 95.7367 64.7955 95.9256 65.2827C96.1145 65.7699 96.209 66.3698 96.209 67.0824V67.5795H90.3226V66.5653H95.0158C95.0158 66.1345 94.9296 65.75 94.7573 65.4119C94.5882 65.0739 94.3463 64.8071 94.0314 64.6115C93.7199 64.416 93.352 64.3182 92.9277 64.3182C92.4604 64.3182 92.056 64.4342 91.7147 64.6662C91.3766 64.8949 91.1164 65.1932 90.9341 65.5611C90.7518 65.929 90.6607 66.3234 90.6607 66.7443V67.4205C90.6607 67.9972 90.7601 68.486 90.959 68.8871C91.1612 69.2848 91.4412 69.5881 91.7992 69.7969C92.1571 70.0024 92.5731 70.1051 93.0471 70.1051C93.3553 70.1051 93.6337 70.062 93.8823 69.9759C94.1342 69.8864 94.3513 69.7538 94.5336 69.5781C94.7159 69.3991 94.8567 69.1771 94.9561 68.9119L96.0897 69.2301C95.9703 69.6146 95.7698 69.9527 95.4881 70.2443C95.2064 70.5327 94.8584 70.758 94.4441 70.9205C94.0298 71.0795 93.5641 71.1591 93.0471 71.1591ZM99.1671 66.4062V71H97.9938V63.3636H99.1273V64.5568H99.2267C99.4057 64.169 99.6775 63.8575 100.042 63.6222C100.407 63.3835 100.877 63.2642 101.454 63.2642C101.971 63.2642 102.423 63.3703 102.811 63.5824C103.199 63.7912 103.501 64.1094 103.716 64.5369C103.932 64.9612 104.039 65.4981 104.039 66.1477V71H102.866V66.2273C102.866 65.6274 102.71 65.16 102.399 64.8253C102.087 64.4872 101.66 64.3182 101.116 64.3182C100.741 64.3182 100.407 64.3994 100.112 64.5618C99.82 64.7242 99.5897 64.9612 99.4206 65.2727C99.2516 65.5843 99.1671 65.9621 99.1671 66.4062ZM110.996 67.8778V63.3636H112.169V71H110.996V69.7074H110.916C110.737 70.0952 110.459 70.425 110.081 70.6967C109.703 70.9652 109.226 71.0994 108.649 71.0994C108.172 71.0994 107.748 70.995 107.376 70.7862C107.005 70.5741 106.714 70.2559 106.501 69.8317C106.289 69.4041 106.183 68.8655 106.183 68.2159V63.3636H107.357V68.1364C107.357 68.6932 107.512 69.1373 107.824 69.4688C108.139 69.8002 108.54 69.9659 109.027 69.9659C109.319 69.9659 109.615 69.8913 109.917 69.7422C110.222 69.593 110.477 69.3643 110.683 69.0561C110.891 68.7479 110.996 68.3551 110.996 67.8778ZM117.52 71.1591C116.784 71.1591 116.149 70.9967 115.616 70.6719C115.085 70.3438 114.676 69.8864 114.388 69.2997C114.103 68.7098 113.96 68.0237 113.96 67.2415C113.96 66.4593 114.103 65.7699 114.388 65.1733C114.676 64.5734 115.077 64.1061 115.591 63.7713C116.108 63.4332 116.711 63.2642 117.4 63.2642C117.798 63.2642 118.191 63.3305 118.579 63.4631C118.966 63.5956 119.319 63.8111 119.638 64.1094C119.956 64.4044 120.209 64.7955 120.398 65.2827C120.587 65.7699 120.682 66.3698 120.682 67.0824V67.5795H114.795V66.5653H119.488C119.488 66.1345 119.402 65.75 119.23 65.4119C119.061 65.0739 118.819 64.8071 118.504 64.6115C118.193 64.416 117.825 64.3182 117.4 64.3182C116.933 64.3182 116.529 64.4342 116.187 64.6662C115.849 64.8949 115.589 65.1932 115.407 65.5611C115.224 65.929 115.133 66.3234 115.133 66.7443V67.4205C115.133 67.9972 115.233 68.486 115.432 68.8871C115.634 69.2848 115.914 69.5881 116.272 69.7969C116.63 70.0024 117.046 70.1051 117.52 70.1051C117.828 70.1051 118.106 70.062 118.355 69.9759C118.607 69.8864 118.824 69.7538 119.006 69.5781C119.189 69.3991 119.329 69.1771 119.429 68.9119L120.562 69.2301C120.443 69.6146 120.242 69.9527 119.961 70.2443C119.679 70.5327 119.331 70.758 118.917 70.9205C118.502 71.0795 118.037 71.1591 117.52 71.1591Z" fill="#5A607F"/>
<path d="M34.0653 50.8182V32.6364H35.2301V50.8182H34.0653ZM37.1548 38.6378C37.098 38.0649 36.8542 37.6198 36.4233 37.3026C35.9924 36.9853 35.4077 36.8267 34.669 36.8267C34.1671 36.8267 33.7434 36.8977 33.3977 37.0398C33.0521 37.1771 32.7869 37.3688 32.6023 37.6151C32.4223 37.8613 32.3324 38.1406 32.3324 38.4531C32.3229 38.7135 32.3774 38.9408 32.4957 39.1349C32.6188 39.3291 32.7869 39.4972 33 39.6392C33.2131 39.7765 33.4593 39.8973 33.7386 40.0014C34.018 40.1009 34.3163 40.1861 34.6335 40.2571L35.9403 40.5696C36.5748 40.7116 37.1572 40.901 37.6875 41.1378C38.2178 41.3745 38.6771 41.6657 39.0653 42.0114C39.4536 42.357 39.7543 42.7642 39.9673 43.233C40.1851 43.7017 40.2964 44.2391 40.3011 44.8452C40.2964 45.7353 40.0691 46.5071 39.6193 47.1605C39.1742 47.8092 38.5303 48.3134 37.6875 48.6733C36.8494 49.0284 35.8385 49.206 34.6548 49.206C33.4806 49.206 32.4579 49.026 31.5866 48.6662C30.7202 48.3063 30.0431 47.7737 29.5554 47.0682C29.0724 46.358 28.8191 45.4796 28.7955 44.4332H31.7713C31.8045 44.9209 31.9441 45.3281 32.1903 45.6548C32.4413 45.9768 32.7751 46.2206 33.1918 46.3864C33.6132 46.5473 34.089 46.6278 34.6193 46.6278C35.1402 46.6278 35.5923 46.5521 35.9759 46.4006C36.3641 46.2491 36.6648 46.0384 36.8778 45.7685C37.0909 45.4986 37.1974 45.1884 37.1974 44.8381C37.1974 44.5114 37.1004 44.2367 36.9062 44.0142C36.7169 43.7917 36.4375 43.6023 36.0682 43.446C35.7036 43.2898 35.2562 43.1477 34.7259 43.0199L33.142 42.6222C31.9157 42.3239 30.9474 41.8575 30.2372 41.223C29.527 40.5885 29.1742 39.7339 29.179 38.6591C29.1742 37.7784 29.4086 37.009 29.8821 36.3509C30.3603 35.6927 31.0161 35.179 31.8494 34.8097C32.6828 34.4403 33.6297 34.2557 34.6903 34.2557C35.7699 34.2557 36.7121 34.4403 37.517 34.8097C38.3267 35.179 38.9564 35.6927 39.4062 36.3509C39.8561 37.009 40.0881 37.7713 40.1023 38.6378H37.1548ZM48.6126 34.4545V49H45.5373V37.3736H45.4521L42.1211 39.4616V36.7344L45.7219 34.4545H48.6126ZM57.7727 49.3196C56.5511 49.3149 55.5 49.0142 54.6193 48.4176C53.7434 47.821 53.0687 46.9569 52.5952 45.8253C52.1264 44.6937 51.8944 43.3324 51.8991 41.7415C51.8991 40.1553 52.1335 38.8035 52.6023 37.6861C53.0758 36.5687 53.7505 35.7187 54.6264 35.1364C55.5071 34.5492 56.5559 34.2557 57.7727 34.2557C58.9896 34.2557 60.036 34.5492 60.9119 35.1364C61.7926 35.7235 62.4697 36.5758 62.9432 37.6932C63.4167 38.8059 63.651 40.1553 63.6463 41.7415C63.6463 43.3371 63.4096 44.7008 62.9361 45.8324C62.4673 46.964 61.795 47.8281 60.919 48.4247C60.0431 49.0213 58.9943 49.3196 57.7727 49.3196ZM57.7727 46.7699C58.6061 46.7699 59.2713 46.3509 59.7685 45.5128C60.2656 44.6747 60.5118 43.4176 60.5071 41.7415C60.5071 40.6383 60.3935 39.7197 60.1662 38.9858C59.9437 38.2519 59.6264 37.7003 59.2145 37.331C58.8073 36.9616 58.3267 36.777 57.7727 36.777C56.9441 36.777 56.2813 37.1913 55.7841 38.0199C55.2869 38.8485 55.036 40.089 55.0312 41.7415C55.0312 42.8589 55.1425 43.7917 55.3651 44.5398C55.5923 45.2831 55.9119 45.8419 56.3239 46.2159C56.7358 46.5852 57.2188 46.7699 57.7727 46.7699ZM67.0501 49.1847C66.5813 49.1847 66.1789 49.0189 65.8427 48.6875C65.5112 48.3513 65.3455 47.9489 65.3455 47.4801C65.3455 47.0161 65.5112 46.6184 65.8427 46.2869C66.1789 45.9555 66.5813 45.7898 67.0501 45.7898C67.5046 45.7898 67.9023 45.9555 68.2433 46.2869C68.5842 46.6184 68.7546 47.0161 68.7546 47.4801C68.7546 47.7926 68.6741 48.0791 68.5131 48.3395C68.3569 48.5952 68.1509 48.8011 67.8952 48.9574C67.6396 49.1089 67.3578 49.1847 67.0501 49.1847ZM76.4055 49.1989C75.4018 49.1989 74.5069 49.0142 73.7209 48.6449C72.9396 48.2756 72.3194 47.7666 71.8601 47.1179C71.4008 46.4692 71.1617 45.7259 71.1428 44.8878H74.1257C74.1589 45.4512 74.3956 45.9081 74.8359 46.2585C75.2763 46.6089 75.7995 46.7841 76.4055 46.7841C76.8885 46.7841 77.3146 46.6776 77.6839 46.4645C78.058 46.2467 78.3492 45.946 78.5575 45.5625C78.7706 45.1742 78.8771 44.7292 78.8771 44.2273C78.8771 43.7159 78.7682 43.2661 78.5504 42.8778C78.3374 42.4896 78.0414 42.1866 77.6626 41.9688C77.2839 41.7509 76.8506 41.6397 76.3629 41.6349C75.9368 41.6349 75.5225 41.7225 75.12 41.8977C74.7223 42.0729 74.4122 42.312 74.1896 42.6151L71.4553 42.125L72.1442 34.4545H81.0362V36.9688H74.6797L74.3033 40.6122H74.3885C74.6442 40.2524 75.0301 39.9541 75.5462 39.7173C76.0623 39.4806 76.6399 39.3622 77.2791 39.3622C78.1551 39.3622 78.9363 39.5682 79.6229 39.9801C80.3094 40.392 80.8516 40.9579 81.2493 41.6776C81.647 42.3925 81.8435 43.2164 81.8388 44.1491C81.8435 45.1293 81.6162 46.0005 81.157 46.7628C80.7024 47.5204 80.0656 48.117 79.2464 48.5526C78.4321 48.9834 77.4851 49.1989 76.4055 49.1989ZM83.7635 46.4432V44.0213L89.8359 34.4545H91.924V37.8068H90.6882L86.8601 43.8651V43.9787H95.4893V46.4432H83.7635ZM90.745 49V45.7045L90.8018 44.6321V34.4545H93.6854V49H90.745ZM103.241 49.3196C102.02 49.3149 100.969 49.0142 100.088 48.4176C99.2121 47.821 98.5374 46.9569 98.0639 45.8253C97.5952 44.6937 97.3632 43.3324 97.3679 41.7415C97.3679 40.1553 97.6023 38.8035 98.071 37.6861C98.5445 36.5687 99.2192 35.7187 100.095 35.1364C100.976 34.5492 102.025 34.2557 103.241 34.2557C104.458 34.2557 105.505 34.5492 106.381 35.1364C107.261 35.7235 107.938 36.5758 108.412 37.6932C108.885 38.8059 109.12 40.1553 109.115 41.7415C109.115 43.3371 108.878 44.7008 108.405 45.8324C107.936 46.964 107.264 47.8281 106.388 48.4247C105.512 49.0213 104.463 49.3196 103.241 49.3196ZM103.241 46.7699C104.075 46.7699 104.74 46.3509 105.237 45.5128C105.734 44.6747 105.981 43.4176 105.976 41.7415C105.976 40.6383 105.862 39.7197 105.635 38.9858C105.412 38.2519 105.095 37.7003 104.683 37.331C104.276 36.9616 103.795 36.777 103.241 36.777C102.413 36.777 101.75 37.1913 101.253 38.0199C100.756 38.8485 100.505 40.089 100.5 41.7415C100.5 42.8589 100.611 43.7917 100.834 44.5398C101.061 45.2831 101.381 45.8419 101.793 46.2159C102.205 46.5852 102.688 46.7699 103.241 46.7699Z" fill="#131523"/>
<path d="M29.054 101V100.105L32.4148 96.4261C32.8092 95.9953 33.134 95.6207 33.3892 95.3026C33.6444 94.9811 33.8333 94.6795 33.956 94.3977C34.0819 94.1127 34.1449 93.8144 34.1449 93.5028C34.1449 93.1449 34.0587 92.835 33.8864 92.5732C33.7173 92.3113 33.4853 92.1091 33.1903 91.9666C32.8954 91.8241 32.5639 91.7528 32.196 91.7528C31.8049 91.7528 31.4635 91.834 31.1719 91.9964C30.8835 92.1555 30.6598 92.3793 30.5007 92.6676C30.3449 92.956 30.267 93.294 30.267 93.6818H29.0938C29.0938 93.0852 29.2313 92.5616 29.5064 92.1108C29.7815 91.66 30.156 91.3087 30.63 91.0568C31.1072 90.8049 31.6425 90.679 32.2358 90.679C32.8324 90.679 33.361 90.8049 33.8217 91.0568C34.2824 91.3087 34.6437 91.6484 34.9055 92.076C35.1674 92.5036 35.2983 92.9792 35.2983 93.5028C35.2983 93.8774 35.2304 94.2436 35.0945 94.6016C34.9619 94.9562 34.7299 95.3523 34.3984 95.7898C34.0703 96.224 33.6146 96.7543 33.0312 97.3807L30.7443 99.8267V99.9062H35.4773V101H29.054ZM37.5305 101V100.105L40.8913 96.4261C41.2857 95.9953 41.6106 95.6207 41.8658 95.3026C42.121 94.9811 42.3099 94.6795 42.4325 94.3977C42.5585 94.1127 42.6214 93.8144 42.6214 93.5028C42.6214 93.1449 42.5353 92.835 42.3629 92.5732C42.1939 92.3113 41.9619 92.1091 41.6669 91.9666C41.3719 91.8241 41.0405 91.7528 40.6726 91.7528C40.2815 91.7528 39.9401 91.834 39.6484 91.9964C39.3601 92.1555 39.1364 92.3793 38.9773 92.6676C38.8215 92.956 38.7436 93.294 38.7436 93.6818H37.5703C37.5703 93.0852 37.7079 92.5616 37.983 92.1108C38.258 91.66 38.6326 91.3087 39.1065 91.0568C39.5838 90.8049 40.1191 90.679 40.7124 90.679C41.3089 90.679 41.8376 90.8049 42.2983 91.0568C42.759 91.3087 43.1203 91.6484 43.3821 92.076C43.6439 92.5036 43.7749 92.9792 43.7749 93.5028C43.7749 93.8774 43.7069 94.2436 43.571 94.6016C43.4384 94.9562 43.2064 95.3523 42.875 95.7898C42.5469 96.224 42.0911 96.7543 41.5078 97.3807L39.2209 99.8267V99.9062H43.9538V101H37.5305ZM46.8821 101.08C46.6368 101.08 46.4264 100.992 46.2507 100.816C46.075 100.64 45.9872 100.43 45.9872 100.185C45.9872 99.9394 46.075 99.7289 46.2507 99.5533C46.4264 99.3776 46.6368 99.2898 46.8821 99.2898C47.1274 99.2898 47.3378 99.3776 47.5135 99.5533C47.6892 99.7289 47.777 99.9394 47.777 100.185C47.777 100.347 47.7356 100.496 47.6527 100.632C47.5732 100.768 47.4654 100.877 47.3295 100.96C47.197 101.04 47.0478 101.08 46.8821 101.08ZM49.6239 98.9119V97.8977L54.0984 90.8182H54.8342V92.3892H54.337L50.9563 97.7386V97.8182H56.9819V98.9119H49.6239ZM54.4165 101V98.6037V98.1314V90.8182H55.5898V101H54.4165ZM62.0268 101.139C61.4435 101.139 60.9181 101.023 60.4508 100.791C59.9835 100.559 59.609 100.241 59.3272 99.8366C59.0455 99.4323 58.8914 98.9716 58.8649 98.4545H60.0581C60.1045 98.9152 60.3133 99.2964 60.6845 99.598C61.059 99.8963 61.5065 100.045 62.0268 100.045C62.4444 100.045 62.8156 99.9477 63.1404 99.7521C63.4686 99.5566 63.7254 99.2881 63.911 98.9467C64.1 98.602 64.1944 98.2126 64.1944 97.7784C64.1944 97.3343 64.0967 96.9382 63.9011 96.5902C63.7089 96.2389 63.4437 95.9621 63.1056 95.7599C62.7676 95.5578 62.3815 95.455 61.9473 95.4517C61.6357 95.4484 61.3159 95.4964 60.9877 95.5959C60.6596 95.692 60.3895 95.8163 60.1774 95.9688L59.024 95.8295L59.6404 90.8182H64.9302V91.9119H60.6745L60.3166 94.9148H60.3762C60.585 94.7491 60.8469 94.6115 61.1618 94.5021C61.4766 94.3928 61.8047 94.3381 62.1461 94.3381C62.7692 94.3381 63.3244 94.4872 63.8116 94.7855C64.3021 95.0805 64.6866 95.4848 64.965 95.9986C65.2467 96.5123 65.3876 97.099 65.3876 97.7585C65.3876 98.4081 65.2418 98.9882 64.9501 99.4986C64.6618 100.006 64.264 100.407 63.7569 100.702C63.2498 100.993 62.6731 101.139 62.0268 101.139ZM72.5529 99.0909V98.554C72.5529 98.1828 72.6291 97.843 72.7816 97.5348C72.9374 97.2232 73.1628 96.9747 73.4577 96.7891C73.756 96.6001 74.1173 96.5057 74.5415 96.5057C74.9724 96.5057 75.3337 96.6001 75.6254 96.7891C75.917 96.9747 76.1374 97.2232 76.2866 97.5348C76.4357 97.843 76.5103 98.1828 76.5103 98.554V99.0909C76.5103 99.4621 76.4341 99.8035 76.2816 100.115C76.1325 100.423 75.9104 100.672 75.6154 100.861C75.3237 101.046 74.9658 101.139 74.5415 101.139C74.1107 101.139 73.7478 101.046 73.4528 100.861C73.1578 100.672 72.9341 100.423 72.7816 100.115C72.6291 99.8035 72.5529 99.4621 72.5529 99.0909ZM73.5671 98.554V99.0909C73.5671 99.3991 73.64 99.6759 73.7859 99.9212C73.9317 100.163 74.1836 100.284 74.5415 100.284C74.8896 100.284 75.1348 100.163 75.2773 99.9212C75.4232 99.6759 75.4961 99.3991 75.4961 99.0909V98.554C75.4961 98.2457 75.4265 97.9706 75.2873 97.7287C75.1481 97.4834 74.8995 97.3608 74.5415 97.3608C74.1935 97.3608 73.9433 97.4834 73.7908 97.7287C73.6417 97.9706 73.5671 98.2457 73.5671 98.554ZM67.4819 93.2642V92.7273C67.4819 92.3561 67.5581 92.0163 67.7106 91.7081C67.8664 91.3965 68.0917 91.148 68.3867 90.9624C68.685 90.7734 69.0463 90.679 69.4705 90.679C69.9014 90.679 70.2627 90.7734 70.5543 90.9624C70.846 91.148 71.0664 91.3965 71.2156 91.7081C71.3647 92.0163 71.4393 92.3561 71.4393 92.7273V93.2642C71.4393 93.6354 71.363 93.9768 71.2106 94.2884C71.0614 94.5966 70.8394 94.8452 70.5444 95.0341C70.2527 95.2197 69.8948 95.3125 69.4705 95.3125C69.0397 95.3125 68.6767 95.2197 68.3817 95.0341C68.0868 94.8452 67.863 94.5966 67.7106 94.2884C67.5581 93.9768 67.4819 93.6354 67.4819 93.2642ZM68.4961 92.7273V93.2642C68.4961 93.5724 68.569 93.8492 68.7148 94.0945C68.8607 94.3364 69.1126 94.4574 69.4705 94.4574C69.8185 94.4574 70.0638 94.3364 70.2063 94.0945C70.3522 93.8492 70.4251 93.5724 70.4251 93.2642V92.7273C70.4251 92.419 70.3555 92.1439 70.2163 91.902C70.0771 91.6567 69.8285 91.5341 69.4705 91.5341C69.1225 91.5341 68.8723 91.6567 68.7198 91.902C68.5707 92.1439 68.4961 92.419 68.4961 92.7273ZM67.8597 101L74.8597 90.8182H75.9933L68.9933 101H67.8597Z" fill="#06A561"/>
<path fill-rule="evenodd" clip-rule="evenodd" d="M88.2929 99.7071C87.9324 99.3466 87.9047 98.7794 88.2097 98.3871L88.2929 98.2929L93.2929 93.2929C93.6534 92.9324 94.2206 92.9047 94.6129 93.2097L94.7071 93.2929L99.7071 98.2929C100.098 98.6834 100.098 99.3166 99.7071 99.7071C99.3466 100.068 98.7794 100.095 98.3871 99.7903L98.2929 99.7071L94 95.415L89.7071 99.7071C89.3466 100.068 88.7794 100.095 88.3871 99.7903L88.2929 99.7071Z" fill="#06A561"/>
</g>
<g clip-path="url(#clip2_0_1683)">
<path d="M317.634 90.8182V101H316.401V92.1108H316.341L313.855 93.7614V92.5085L316.401 90.8182H317.634ZM323.744 101.139C323.16 101.139 322.635 101.023 322.168 100.791C321.7 100.559 321.326 100.241 321.044 99.8366C320.762 99.4323 320.608 98.9716 320.582 98.4545H321.775C321.821 98.9152 322.03 99.2964 322.401 99.598C322.776 99.8963 323.223 100.045 323.744 100.045C324.161 100.045 324.532 99.9477 324.857 99.7521C325.185 99.5566 325.442 99.2881 325.628 98.9467C325.817 98.602 325.911 98.2126 325.911 97.7784C325.911 97.3343 325.813 96.9382 325.618 96.5902C325.426 96.2389 325.161 95.9621 324.822 95.7599C324.484 95.5578 324.098 95.455 323.664 95.4517C323.353 95.4484 323.033 95.4964 322.705 95.5959C322.376 95.692 322.106 95.8163 321.894 95.9688L320.741 95.8295L321.357 90.8182H326.647V91.9119H322.391L322.033 94.9148H322.093C322.302 94.7491 322.564 94.6115 322.879 94.5021C323.193 94.3928 323.522 94.3381 323.863 94.3381C324.486 94.3381 325.041 94.4872 325.528 94.7855C326.019 95.0805 326.403 95.4848 326.682 95.9986C326.964 96.5123 327.104 97.099 327.104 97.7585C327.104 98.4081 326.959 98.9882 326.667 99.4986C326.379 100.006 325.981 100.407 325.474 100.702C324.967 100.993 324.39 101.139 323.744 101.139ZM329.572 101.08C329.326 101.08 329.116 100.992 328.94 100.816C328.765 100.64 328.677 100.43 328.677 100.185C328.677 99.9394 328.765 99.7289 328.94 99.5533C329.116 99.3776 329.326 99.2898 329.572 99.2898C329.817 99.2898 330.027 99.3776 330.203 99.5533C330.379 99.7289 330.466 99.9394 330.466 100.185C330.466 100.347 330.425 100.496 330.342 100.632C330.263 100.768 330.155 100.877 330.019 100.96C329.886 101.04 329.737 101.08 329.572 101.08ZM335.61 101.139C334.953 101.139 334.368 101.027 333.855 100.801C333.344 100.576 332.938 100.263 332.637 99.8615C332.338 99.4571 332.176 98.9882 332.149 98.4545H333.402C333.429 98.7827 333.541 99.0661 333.74 99.3047C333.939 99.54 334.199 99.7223 334.521 99.8516C334.842 99.9808 335.199 100.045 335.59 100.045C336.027 100.045 336.415 99.9692 336.753 99.8168C337.091 99.6643 337.356 99.4522 337.548 99.1804C337.741 98.9086 337.837 98.5938 337.837 98.2358C337.837 97.8613 337.744 97.5315 337.558 97.2464C337.373 96.9581 337.101 96.7327 336.743 96.5703C336.385 96.4079 335.948 96.3267 335.431 96.3267H334.615V95.233H335.431C335.835 95.233 336.19 95.16 336.494 95.0142C336.803 94.8684 337.043 94.6629 337.215 94.3977C337.391 94.1326 337.479 93.821 337.479 93.4631C337.479 93.1184 337.403 92.8184 337.25 92.5632C337.098 92.308 336.882 92.1091 336.604 91.9666C336.329 91.8241 336.004 91.7528 335.629 91.7528C335.278 91.7528 334.947 91.8175 334.635 91.9467C334.327 92.0727 334.075 92.2566 333.879 92.4986C333.684 92.7372 333.578 93.0256 333.561 93.3636H332.368C332.388 92.83 332.549 92.3627 332.85 91.9616C333.152 91.5573 333.546 91.2424 334.034 91.017C334.524 90.7917 335.063 90.679 335.649 90.679C336.279 90.679 336.819 90.8066 337.27 91.0618C337.721 91.3137 338.067 91.6468 338.309 92.0611C338.551 92.4754 338.672 92.9228 338.672 93.4034C338.672 93.9768 338.521 94.4657 338.22 94.87C337.921 95.2744 337.515 95.5545 337.002 95.7102V95.7898C337.645 95.8958 338.147 96.1693 338.508 96.6101C338.869 97.0476 339.05 97.5895 339.05 98.2358C339.05 98.7893 338.899 99.2865 338.597 99.7273C338.299 100.165 337.892 100.509 337.374 100.761C336.857 101.013 336.269 101.139 335.61 101.139ZM340.845 98.9119V97.8977L345.319 90.8182H346.055V92.3892H345.558L342.177 97.7386V97.8182H348.203V98.9119H340.845ZM345.637 101V98.6037V98.1314V90.8182H346.811V101H345.637ZM355.256 99.0909V98.554C355.256 98.1828 355.332 97.843 355.485 97.5348C355.641 97.2232 355.866 96.9747 356.161 96.7891C356.459 96.6001 356.82 96.5057 357.245 96.5057C357.676 96.5057 358.037 96.6001 358.328 96.7891C358.62 96.9747 358.841 97.2232 358.99 97.5348C359.139 97.843 359.213 98.1828 359.213 98.554V99.0909C359.213 99.4621 359.137 99.8035 358.985 100.115C358.836 100.423 358.614 100.672 358.319 100.861C358.027 101.046 357.669 101.139 357.245 101.139C356.814 101.139 356.451 101.046 356.156 100.861C355.861 100.672 355.637 100.423 355.485 100.115C355.332 99.8035 355.256 99.4621 355.256 99.0909ZM356.27 98.554V99.0909C356.27 99.3991 356.343 99.6759 356.489 99.9212C356.635 100.163 356.887 100.284 357.245 100.284C357.593 100.284 357.838 100.163 357.98 99.9212C358.126 99.6759 358.199 99.3991 358.199 99.0909V98.554C358.199 98.2457 358.13 97.9706 357.99 97.7287C357.851 97.4834 357.603 97.3608 357.245 97.3608C356.897 97.3608 356.646 97.4834 356.494 97.7287C356.345 97.9706 356.27 98.2457 356.27 98.554ZM350.185 93.2642V92.7273C350.185 92.3561 350.261 92.0163 350.414 91.7081C350.569 91.3965 350.795 91.148 351.09 90.9624C351.388 90.7734 351.749 90.679 352.174 90.679C352.605 90.679 352.966 90.7734 353.257 90.9624C353.549 91.148 353.77 91.3965 353.919 91.7081C354.068 92.0163 354.142 92.3561 354.142 92.7273V93.2642C354.142 93.6354 354.066 93.9768 353.914 94.2884C353.765 94.5966 353.542 94.8452 353.248 95.0341C352.956 95.2197 352.598 95.3125 352.174 95.3125C351.743 95.3125 351.38 95.2197 351.085 95.0341C350.79 94.8452 350.566 94.5966 350.414 94.2884C350.261 93.9768 350.185 93.6354 350.185 93.2642ZM351.199 92.7273V93.2642C351.199 93.5724 351.272 93.8492 351.418 94.0945C351.564 94.3364 351.816 94.4574 352.174 94.4574C352.522 94.4574 352.767 94.3364 352.909 94.0945C353.055 93.8492 353.128 93.5724 353.128 93.2642V92.7273C353.128 92.419 353.059 92.1439 352.919 91.902C352.78 91.6567 352.532 91.5341 352.174 91.5341C351.826 91.5341 351.575 91.6567 351.423 91.902C351.274 92.1439 351.199 92.419 351.199 92.7273ZM350.563 101L357.563 90.8182H358.696L351.696 101H350.563Z" fill="#06A561"/>
<path fill-rule="evenodd" clip-rule="evenodd" d="M372.293 99.7071C371.932 99.3466 371.905 98.7794 372.21 98.3871L372.293 98.2929L377.293 93.2929C377.653 92.9324 378.221 92.9047 378.613 93.2097L378.707 93.2929L383.707 98.2929C384.098 98.6834 384.098 99.3166 383.707 99.7071C383.347 100.068 382.779 100.095 382.387 99.7903L382.293 99.7071L378 95.415L373.707 99.7071C373.347 100.068 372.779 100.095 372.387 99.7903L372.293 99.7071Z" fill="#06A561"/>
<path d="M322.824 65.9091C322.824 66.983 322.63 67.911 322.242 68.6932C321.854 69.4754 321.322 70.0786 320.646 70.5028C319.97 70.9271 319.198 71.1392 318.33 71.1392C317.461 71.1392 316.689 70.9271 316.013 70.5028C315.337 70.0786 314.805 69.4754 314.417 68.6932C314.029 67.911 313.835 66.983 313.835 65.9091C313.835 64.8352 314.029 63.9072 314.417 63.125C314.805 62.3428 315.337 61.7396 316.013 61.3153C316.689 60.8911 317.461 60.679 318.33 60.679C319.198 60.679 319.97 60.8911 320.646 61.3153C321.322 61.7396 321.854 62.3428 322.242 63.125C322.63 63.9072 322.824 64.8352 322.824 65.9091ZM321.631 65.9091C321.631 65.0275 321.483 64.2834 321.188 63.6768C320.897 63.0703 320.5 62.6113 320 62.2997C319.503 61.9882 318.946 61.8324 318.33 61.8324C317.713 61.8324 317.155 61.9882 316.654 62.2997C316.157 62.6113 315.761 63.0703 315.466 63.6768C315.174 64.2834 315.028 65.0275 315.028 65.9091C315.028 66.7907 315.174 67.5348 315.466 68.1413C315.761 68.7479 316.157 69.2069 316.654 69.5185C317.155 69.83 317.713 69.9858 318.33 69.9858C318.946 69.9858 319.503 69.83 320 69.5185C320.5 69.2069 320.897 68.7479 321.188 68.1413C321.483 67.5348 321.631 66.7907 321.631 65.9091ZM324.738 71V63.3636H325.871V64.517H325.951C326.09 64.1392 326.342 63.8326 326.707 63.5973C327.071 63.362 327.482 63.2443 327.94 63.2443C328.026 63.2443 328.134 63.246 328.263 63.2493C328.392 63.2526 328.49 63.2576 328.556 63.2642V64.4574C328.516 64.4474 328.425 64.4325 328.283 64.4126C328.143 64.3894 327.996 64.3778 327.84 64.3778C327.469 64.3778 327.138 64.4557 326.846 64.6115C326.558 64.764 326.329 64.9761 326.16 65.2479C325.994 65.5163 325.911 65.8229 325.911 66.1676V71H324.738ZM332.598 71.1591C331.962 71.1591 331.4 70.9983 330.913 70.6768C330.425 70.352 330.044 69.8946 329.769 69.3047C329.494 68.7114 329.357 68.0104 329.357 67.2017C329.357 66.3996 329.494 65.7036 329.769 65.1136C330.044 64.5237 330.427 64.0679 330.918 63.7464C331.408 63.425 331.975 63.2642 332.618 63.2642C333.115 63.2642 333.508 63.3471 333.796 63.5128C334.088 63.6752 334.31 63.8608 334.462 64.0696C334.618 64.2751 334.739 64.4441 334.825 64.5767H334.925V60.8182H336.098V71H334.964V69.8267H334.825C334.739 69.9659 334.616 70.1416 334.457 70.3537C334.298 70.5625 334.071 70.7498 333.776 70.9155C333.481 71.0779 333.089 71.1591 332.598 71.1591ZM332.757 70.1051C333.228 70.1051 333.625 69.9825 333.95 69.7372C334.275 69.4886 334.522 69.1456 334.691 68.7081C334.86 68.2673 334.945 67.7585 334.945 67.1818C334.945 66.6117 334.862 66.1129 334.696 65.6854C334.53 65.2545 334.285 64.9197 333.96 64.6811C333.635 64.4392 333.234 64.3182 332.757 64.3182C332.26 64.3182 331.846 64.4458 331.514 64.701C331.186 64.9529 330.939 65.2959 330.773 65.7301C330.611 66.161 330.53 66.6449 330.53 67.1818C330.53 67.7254 330.613 68.2192 330.778 68.6634C330.947 69.1042 331.196 69.4555 331.524 69.7173C331.856 69.9759 332.267 70.1051 332.757 70.1051ZM341.612 71.1591C340.876 71.1591 340.241 70.9967 339.707 70.6719C339.177 70.3438 338.768 69.8864 338.479 69.2997C338.194 68.7098 338.052 68.0237 338.052 67.2415C338.052 66.4593 338.194 65.7699 338.479 65.1733C338.768 64.5734 339.169 64.1061 339.683 63.7713C340.2 63.4332 340.803 63.2642 341.492 63.2642C341.89 63.2642 342.283 63.3305 342.67 63.4631C343.058 63.5956 343.411 63.8111 343.729 64.1094C344.048 64.4044 344.301 64.7955 344.49 65.2827C344.679 65.7699 344.773 66.3698 344.773 67.0824V67.5795H338.887V66.5653H343.58C343.58 66.1345 343.494 65.75 343.322 65.4119C343.153 65.0739 342.911 64.8071 342.596 64.6115C342.284 64.416 341.916 64.3182 341.492 64.3182C341.025 64.3182 340.621 64.4342 340.279 64.6662C339.941 64.8949 339.681 65.1932 339.499 65.5611C339.316 65.929 339.225 66.3234 339.225 66.7443V67.4205C339.225 67.9972 339.325 68.486 339.523 68.8871C339.726 69.2848 340.006 69.5881 340.364 69.7969C340.722 70.0024 341.138 70.1051 341.612 70.1051C341.92 70.1051 342.198 70.062 342.447 69.9759C342.699 69.8864 342.916 69.7538 343.098 69.5781C343.28 69.3991 343.421 69.1771 343.521 68.9119L344.654 69.2301C344.535 69.6146 344.334 69.9527 344.053 70.2443C343.771 70.5327 343.423 70.758 343.009 70.9205C342.594 71.0795 342.129 71.1591 341.612 71.1591ZM346.558 71V63.3636H347.692V64.517H347.771C347.911 64.1392 348.162 63.8326 348.527 63.5973C348.892 63.362 349.303 63.2443 349.76 63.2443C349.846 63.2443 349.954 63.246 350.083 63.2493C350.212 63.2526 350.31 63.2576 350.376 63.2642V64.4574C350.337 64.4474 350.246 64.4325 350.103 64.4126C349.964 64.3894 349.816 64.3778 349.661 64.3778C349.289 64.3778 348.958 64.4557 348.666 64.6115C348.378 64.764 348.149 64.9761 347.98 65.2479C347.814 65.5163 347.732 65.8229 347.732 66.1676V71H346.558ZM357.176 65.0739L356.122 65.3722C356.056 65.1965 355.958 65.0258 355.829 64.8601C355.703 64.6911 355.531 64.5518 355.312 64.4425C355.093 64.3331 354.813 64.2784 354.472 64.2784C354.004 64.2784 353.615 64.3861 353.303 64.6016C352.995 64.8137 352.841 65.0838 352.841 65.4119C352.841 65.7036 352.947 65.9339 353.159 66.103C353.371 66.272 353.703 66.4129 354.154 66.5256L355.287 66.804C355.97 66.9697 356.479 67.2232 356.813 67.5646C357.148 67.9027 357.316 68.3385 357.316 68.8722C357.316 69.3097 357.19 69.7008 356.938 70.0455C356.689 70.3902 356.341 70.6619 355.894 70.8608C355.446 71.0597 354.926 71.1591 354.333 71.1591C353.554 71.1591 352.909 70.9901 352.399 70.652C351.888 70.3139 351.565 69.8201 351.429 69.1705L352.543 68.892C352.649 69.303 352.849 69.6113 353.144 69.8168C353.443 70.0223 353.832 70.125 354.313 70.125C354.86 70.125 355.294 70.009 355.615 69.777C355.94 69.5417 356.102 69.2599 356.102 68.9318C356.102 68.6667 356.01 68.4446 355.824 68.2656C355.638 68.0833 355.353 67.9474 354.969 67.858L353.696 67.5597C352.997 67.3939 352.483 67.1371 352.155 66.7891C351.83 66.4377 351.668 65.9986 351.668 65.4716C351.668 65.0407 351.789 64.6596 352.031 64.3281C352.276 63.9967 352.609 63.7365 353.03 63.5476C353.454 63.3587 353.935 63.2642 354.472 63.2642C355.227 63.2642 355.821 63.4299 356.252 63.7614C356.686 64.0928 356.994 64.5303 357.176 65.0739Z" fill="#5A607F"/>
<path d="M320.507 34.4545V49H317.432V37.3736H317.347L314.016 39.4616V36.7344L317.616 34.4545H320.507ZM326.5 47.0114L326.422 47.7926C326.36 48.4176 326.242 49.0402 326.066 49.6605C325.896 50.2855 325.716 50.8513 325.527 51.358C325.342 51.8646 325.193 52.2623 325.079 52.5511H323.119C323.19 52.2718 323.287 51.8812 323.41 51.3793C323.533 50.8821 323.649 50.3234 323.758 49.7031C323.867 49.0829 323.936 48.4508 323.964 47.8068L324 47.0114H326.5ZM334.355 49.3196C333.133 49.3149 332.082 49.0142 331.201 48.4176C330.325 47.821 329.651 46.9569 329.177 45.8253C328.708 44.6937 328.476 43.3324 328.481 41.7415C328.481 40.1553 328.716 38.8035 329.184 37.6861C329.658 36.5687 330.333 35.7187 331.208 35.1364C332.089 34.5492 333.138 34.2557 334.355 34.2557C335.572 34.2557 336.618 34.5492 337.494 35.1364C338.375 35.7235 339.052 36.5758 339.525 37.6932C339.999 38.8059 340.233 40.1553 340.228 41.7415C340.228 43.3371 339.992 44.7008 339.518 45.8324C339.049 46.964 338.377 47.8281 337.501 48.4247C336.625 49.0213 335.576 49.3196 334.355 49.3196ZM334.355 46.7699C335.188 46.7699 335.853 46.3509 336.35 45.5128C336.848 44.6747 337.094 43.4176 337.089 41.7415C337.089 40.6383 336.975 39.7197 336.748 38.9858C336.526 38.2519 336.208 37.7003 335.797 37.331C335.389 36.9616 334.909 36.777 334.355 36.777C333.526 36.777 332.863 37.1913 332.366 38.0199C331.869 38.8485 331.618 40.089 331.613 41.7415C331.613 42.8589 331.725 43.7917 331.947 44.5398C332.174 45.2831 332.494 45.8419 332.906 46.2159C333.318 46.5852 333.801 46.7699 334.355 46.7699ZM347.734 49.1989C346.73 49.1989 345.835 49.0142 345.049 48.6449C344.268 48.2756 343.647 47.7666 343.188 47.1179C342.729 46.4692 342.49 45.7259 342.471 44.8878H345.454C345.487 45.4512 345.724 45.9081 346.164 46.2585C346.604 46.6089 347.128 46.7841 347.734 46.7841C348.217 46.7841 348.643 46.6776 349.012 46.4645C349.386 46.2467 349.677 45.946 349.886 45.5625C350.099 45.1742 350.205 44.7292 350.205 44.2273C350.205 43.7159 350.096 43.2661 349.879 42.8778C349.665 42.4896 349.37 42.1866 348.991 41.9688C348.612 41.7509 348.179 41.6397 347.691 41.6349C347.265 41.6349 346.851 41.7225 346.448 41.8977C346.05 42.0729 345.74 42.312 345.518 42.6151L342.783 42.125L343.472 34.4545H352.364V36.9688H346.008L345.631 40.6122H345.717C345.972 40.2524 346.358 39.9541 346.874 39.7173C347.39 39.4806 347.968 39.3622 348.607 39.3622C349.483 39.3622 350.264 39.5682 350.951 39.9801C351.638 40.392 352.18 40.9579 352.577 41.6776C352.975 42.3925 353.172 43.2164 353.167 44.1491C353.172 45.1293 352.944 46.0005 352.485 46.7628C352.031 47.5204 351.394 48.117 350.575 48.5526C349.76 48.9834 348.813 49.1989 347.734 49.1989ZM360.894 49.1989C360.146 49.1941 359.424 49.0687 358.728 48.8224C358.037 48.5762 357.416 48.1761 356.867 47.6222C356.318 47.0682 355.882 46.3343 355.56 45.4205C355.243 44.5066 355.085 43.3845 355.085 42.054C355.089 40.8324 355.229 39.741 355.504 38.7798C355.783 37.8139 356.181 36.9948 356.697 36.3224C357.218 35.6501 357.84 35.1387 358.565 34.7884C359.289 34.4332 360.101 34.2557 361.001 34.2557C361.971 34.2557 362.828 34.4451 363.572 34.8239C364.315 35.1979 364.912 35.7069 365.362 36.3509C365.816 36.9948 366.091 37.7169 366.185 38.517H363.153C363.034 38.0104 362.786 37.6127 362.407 37.3239C362.028 37.035 361.559 36.8906 361.001 36.8906C360.054 36.8906 359.334 37.3026 358.842 38.1264C358.354 38.9503 358.105 40.0701 358.096 41.4858H358.195C358.413 41.0549 358.707 40.688 359.076 40.3849C359.45 40.0772 359.874 39.8428 360.347 39.6818C360.826 39.5161 361.33 39.4332 361.86 39.4332C362.722 39.4332 363.489 39.6368 364.161 40.044C364.834 40.4465 365.364 41.0005 365.752 41.706C366.14 42.4115 366.335 43.2187 366.335 44.1278C366.335 45.1127 366.105 45.9886 365.646 46.7557C365.191 47.5227 364.554 48.1241 363.735 48.5597C362.921 48.9905 361.974 49.2036 360.894 49.1989ZM360.88 46.7841C361.353 46.7841 361.777 46.6705 362.151 46.4432C362.525 46.2159 362.819 45.9081 363.032 45.5199C363.245 45.1316 363.352 44.696 363.352 44.2131C363.352 43.7301 363.245 43.2969 363.032 42.9134C362.824 42.5298 362.535 42.2244 362.165 41.9972C361.796 41.7699 361.375 41.6562 360.901 41.6562C360.546 41.6562 360.217 41.7225 359.914 41.8551C359.616 41.9877 359.353 42.1723 359.126 42.4091C358.903 42.6458 358.728 42.9205 358.6 43.233C358.472 43.5407 358.408 43.8698 358.408 44.2202C358.408 44.6889 358.515 45.1174 358.728 45.5057C358.946 45.8939 359.239 46.2041 359.609 46.4361C359.983 46.6681 360.406 46.7841 360.88 46.7841Z" fill="#131523"/>
</g>
<g clip-path="url(#clip3_0_1683)">
<path d="M602.634 90.8182V101H601.401V92.1108H601.341L598.855 93.7614V92.5085L601.401 90.8182H602.634ZM608.823 101.139C608.14 101.139 607.537 101.018 607.013 100.776C606.493 100.531 606.087 100.195 605.795 99.767C605.504 99.3362 605.36 98.8456 605.363 98.2955C605.36 97.8646 605.444 97.4669 605.616 97.1023C605.789 96.7344 606.024 96.4278 606.322 96.1825C606.624 95.9339 606.96 95.7765 607.332 95.7102V95.6506C606.844 95.5246 606.457 95.2512 606.168 94.8303C605.88 94.406 605.737 93.9238 605.741 93.3835C605.737 92.8665 605.868 92.4041 606.134 91.9964C606.399 91.5888 606.763 91.2673 607.227 91.032C607.695 90.7966 608.227 90.679 608.823 90.679C609.413 90.679 609.94 90.7966 610.404 91.032C610.868 91.2673 611.233 91.5888 611.498 91.9964C611.766 92.4041 611.902 92.8665 611.906 93.3835C611.902 93.9238 611.755 94.406 611.463 94.8303C611.175 95.2512 610.792 95.5246 610.315 95.6506V95.7102C610.683 95.7765 611.014 95.9339 611.309 96.1825C611.604 96.4278 611.839 96.7344 612.015 97.1023C612.191 97.4669 612.28 97.8646 612.283 98.2955C612.28 98.8456 612.131 99.3362 611.836 99.767C611.544 100.195 611.138 100.531 610.618 100.776C610.101 101.018 609.503 101.139 608.823 101.139ZM608.823 100.045C609.284 100.045 609.682 99.9709 610.016 99.8217C610.351 99.6726 610.61 99.4621 610.792 99.1903C610.974 98.9186 611.067 98.6004 611.07 98.2358C611.067 97.8513 610.968 97.5116 610.772 97.2166C610.576 96.9216 610.31 96.6896 609.972 96.5206C609.637 96.3516 609.254 96.267 608.823 96.267C608.389 96.267 608.001 96.3516 607.66 96.5206C607.322 96.6896 607.055 96.9216 606.859 97.2166C606.667 97.5116 606.573 97.8513 606.576 98.2358C606.573 98.6004 606.661 98.9186 606.839 99.1903C607.022 99.4621 607.282 99.6726 607.62 99.8217C607.958 99.9709 608.359 100.045 608.823 100.045ZM608.823 95.2131C609.188 95.2131 609.511 95.1402 609.793 94.9943C610.078 94.8485 610.301 94.6446 610.464 94.3828C610.626 94.121 610.709 93.8144 610.712 93.4631C610.709 93.1184 610.628 92.8184 610.469 92.5632C610.31 92.3047 610.089 92.1058 609.808 91.9666C609.526 91.8241 609.198 91.7528 608.823 91.7528C608.442 91.7528 608.109 91.8241 607.824 91.9666C607.539 92.1058 607.318 92.3047 607.163 92.5632C607.007 92.8184 606.931 93.1184 606.934 93.4631C606.931 93.8144 607.009 94.121 607.168 94.3828C607.33 94.6446 607.554 94.8485 607.839 94.9943C608.124 95.1402 608.452 95.2131 608.823 95.2131ZM614.749 101.08C614.504 101.08 614.294 100.992 614.118 100.816C613.942 100.64 613.854 100.43 613.854 100.185C613.854 99.9394 613.942 99.7289 614.118 99.5533C614.294 99.3776 614.504 99.2898 614.749 99.2898C614.995 99.2898 615.205 99.3776 615.381 99.5533C615.556 99.7289 615.644 99.9394 615.644 100.185C615.644 100.347 615.603 100.496 615.52 100.632C615.44 100.768 615.333 100.877 615.197 100.96C615.064 101.04 614.915 101.08 614.749 101.08ZM617.73 101V100.105L621.091 96.4261C621.485 95.9953 621.81 95.6207 622.065 95.3026C622.32 94.9811 622.509 94.6795 622.632 94.3977C622.758 94.1127 622.821 93.8144 622.821 93.5028C622.821 93.1449 622.734 92.835 622.562 92.5732C622.393 92.3113 622.161 92.1091 621.866 91.9666C621.571 91.8241 621.24 91.7528 620.872 91.7528C620.481 91.7528 620.139 91.834 619.848 91.9964C619.559 92.1555 619.336 92.3793 619.176 92.6676C619.021 92.956 618.943 93.294 618.943 93.6818H617.77C617.77 93.0852 617.907 92.5616 618.182 92.1108C618.457 91.66 618.832 91.3087 619.306 91.0568C619.783 90.8049 620.318 90.679 620.912 90.679C621.508 90.679 622.037 90.8049 622.498 91.0568C622.958 91.3087 623.319 91.6484 623.581 92.076C623.843 92.5036 623.974 92.9792 623.974 93.5028C623.974 93.8774 623.906 94.2436 623.77 94.6016C623.638 94.9562 623.406 95.3523 623.074 95.7898C622.746 96.224 622.29 96.7543 621.707 97.3807L619.42 99.8267V99.9062H624.153V101H617.73ZM629.388 101.139C628.805 101.139 628.279 101.023 627.812 100.791C627.345 100.559 626.97 100.241 626.689 99.8366C626.407 99.4323 626.253 98.9716 626.226 98.4545H627.419C627.466 98.9152 627.675 99.2964 628.046 99.598C628.42 99.8963 628.868 100.045 629.388 100.045C629.806 100.045 630.177 99.9477 630.502 99.7521C630.83 99.5566 631.087 99.2881 631.272 98.9467C631.461 98.602 631.556 98.2126 631.556 97.7784C631.556 97.3343 631.458 96.9382 631.262 96.5902C631.07 96.2389 630.805 95.9621 630.467 95.7599C630.129 95.5578 629.743 95.455 629.309 95.4517C628.997 95.4484 628.677 95.4964 628.349 95.5959C628.021 95.692 627.751 95.8163 627.539 95.9688L626.385 95.8295L627.002 90.8182H632.292V91.9119H628.036L627.678 94.9148H627.738C627.946 94.7491 628.208 94.6115 628.523 94.5021C628.838 94.3928 629.166 94.3381 629.507 94.3381C630.131 94.3381 630.686 94.4872 631.173 94.7855C631.663 95.0805 632.048 95.4848 632.326 95.9986C632.608 96.5123 632.749 97.099 632.749 97.7585C632.749 98.4081 632.603 98.9882 632.311 99.4986C632.023 100.006 631.625 100.407 631.118 100.702C630.611 100.993 630.034 101.139 629.388 101.139ZM639.914 99.0909V98.554C639.914 98.1828 639.99 97.843 640.143 97.5348C640.299 97.2232 640.524 96.9747 640.819 96.7891C641.117 96.6001 641.479 96.5057 641.903 96.5057C642.334 96.5057 642.695 96.6001 642.987 96.7891C643.278 96.9747 643.499 97.2232 643.648 97.5348C643.797 97.843 643.872 98.1828 643.872 98.554V99.0909C643.872 99.4621 643.795 99.8035 643.643 100.115C643.494 100.423 643.272 100.672 642.977 100.861C642.685 101.046 642.327 101.139 641.903 101.139C641.472 101.139 641.109 101.046 640.814 100.861C640.519 100.672 640.295 100.423 640.143 100.115C639.99 99.8035 639.914 99.4621 639.914 99.0909ZM640.928 98.554V99.0909C640.928 99.3991 641.001 99.6759 641.147 99.9212C641.293 100.163 641.545 100.284 641.903 100.284C642.251 100.284 642.496 100.163 642.639 99.9212C642.785 99.6759 642.857 99.3991 642.857 99.0909V98.554C642.857 98.2457 642.788 97.9706 642.649 97.7287C642.509 97.4834 642.261 97.3608 641.903 97.3608C641.555 97.3608 641.305 97.4834 641.152 97.7287C641.003 97.9706 640.928 98.2457 640.928 98.554ZM634.843 93.2642V92.7273C634.843 92.3561 634.919 92.0163 635.072 91.7081C635.228 91.3965 635.453 91.148 635.748 90.9624C636.046 90.7734 636.408 90.679 636.832 90.679C637.263 90.679 637.624 90.7734 637.916 90.9624C638.207 91.148 638.428 91.3965 638.577 91.7081C638.726 92.0163 638.801 92.3561 638.801 92.7273V93.2642C638.801 93.6354 638.724 93.9768 638.572 94.2884C638.423 94.5966 638.201 94.8452 637.906 95.0341C637.614 95.2197 637.256 95.3125 636.832 95.3125C636.401 95.3125 636.038 95.2197 635.743 95.0341C635.448 94.8452 635.224 94.5966 635.072 94.2884C634.919 93.9768 634.843 93.6354 634.843 93.2642ZM635.857 92.7273V93.2642C635.857 93.5724 635.93 93.8492 636.076 94.0945C636.222 94.3364 636.474 94.4574 636.832 94.4574C637.18 94.4574 637.425 94.3364 637.568 94.0945C637.713 93.8492 637.786 93.5724 637.786 93.2642V92.7273C637.786 92.419 637.717 92.1439 637.578 91.902C637.438 91.6567 637.19 91.5341 636.832 91.5341C636.484 91.5341 636.234 91.6567 636.081 91.902C635.932 92.1439 635.857 92.419 635.857 92.7273ZM635.221 101L642.221 90.8182H643.355L636.355 101H635.221Z" fill="#F0142F"/>
<path fill-rule="evenodd" clip-rule="evenodd" d="M656.293 93.2929C655.932 93.6534 655.905 94.2206 656.21 94.6129L656.293 94.7071L661.293 99.7071C661.653 100.068 662.221 100.095 662.613 99.7903L662.707 99.7071L667.707 94.7071C668.098 94.3166 668.098 93.6834 667.707 93.2929C667.347 92.9324 666.779 92.9047 666.387 93.2097L666.293 93.2929L662 97.585L657.707 93.2929C657.347 92.9324 656.779 92.9047 656.387 93.2097L656.293 93.2929Z" fill="#F0142F"/>
<path d="M599.651 71H598.358L602.097 60.8182H603.369L607.108 71H605.815L602.773 62.429H602.693L599.651 71ZM600.128 67.0227H605.338V68.1165H600.128V67.0227ZM611.637 71.1591C610.921 71.1591 610.305 70.9901 609.788 70.652C609.271 70.3139 608.873 69.8482 608.594 69.255C608.316 68.6617 608.177 67.9839 608.177 67.2216C608.177 66.446 608.319 65.7616 608.604 65.1683C608.893 64.5717 609.294 64.1061 609.808 63.7713C610.325 63.4332 610.928 63.2642 611.617 63.2642C612.154 63.2642 612.638 63.3636 613.069 63.5625C613.5 63.7614 613.853 64.0398 614.128 64.3977C614.403 64.7557 614.574 65.1733 614.64 65.6506H613.467C613.377 65.3026 613.178 64.9943 612.87 64.7259C612.565 64.4541 612.154 64.3182 611.637 64.3182C611.18 64.3182 610.779 64.4375 610.434 64.6761C610.093 64.9115 609.826 65.2446 609.634 65.6754C609.445 66.103 609.35 66.6051 609.35 67.1818C609.35 67.7718 609.443 68.2855 609.629 68.723C609.817 69.1605 610.083 69.5002 610.424 69.7422C610.769 69.9841 611.173 70.1051 611.637 70.1051C611.942 70.1051 612.219 70.0521 612.467 69.946C612.716 69.84 612.926 69.6875 613.099 69.4886C613.271 69.2898 613.394 69.0511 613.467 68.7727H614.64C614.574 69.2235 614.41 69.6295 614.148 69.9908C613.889 70.3487 613.546 70.6338 613.119 70.8459C612.694 71.0547 612.201 71.1591 611.637 71.1591ZM619.676 63.3636V64.358H615.719V63.3636H619.676ZM616.872 61.5341H618.045V68.8125C618.045 69.1439 618.094 69.3925 618.19 69.5582C618.289 69.7206 618.415 69.83 618.567 69.8864C618.723 69.9394 618.887 69.9659 619.06 69.9659C619.189 69.9659 619.295 69.9593 619.378 69.946C619.461 69.9295 619.527 69.9162 619.577 69.9062L619.815 70.9602C619.736 70.9901 619.625 71.0199 619.482 71.0497C619.34 71.0829 619.159 71.0994 618.94 71.0994C618.609 71.0994 618.284 71.0282 617.966 70.8857C617.651 70.7431 617.389 70.526 617.18 70.2344C616.975 69.9427 616.872 69.5748 616.872 69.1307V61.5341ZM621.441 71V63.3636H622.614V71H621.441ZM622.038 62.0909C621.809 62.0909 621.612 62.013 621.446 61.8572C621.284 61.7015 621.202 61.5142 621.202 61.2955C621.202 61.0767 621.284 60.8894 621.446 60.7337C621.612 60.5779 621.809 60.5 622.038 60.5C622.266 60.5 622.462 60.5779 622.624 60.7337C622.79 60.8894 622.873 61.0767 622.873 61.2955C622.873 61.5142 622.79 61.7015 622.624 61.8572C622.462 62.013 622.266 62.0909 622.038 62.0909ZM631.008 63.3636L628.184 71H626.991L624.167 63.3636H625.439L627.547 69.4489H627.627L629.735 63.3636H631.008ZM635.485 71.1591C634.749 71.1591 634.114 70.9967 633.58 70.6719C633.05 70.3438 632.641 69.8864 632.352 69.2997C632.067 68.7098 631.925 68.0237 631.925 67.2415C631.925 66.4593 632.067 65.7699 632.352 65.1733C632.641 64.5734 633.042 64.1061 633.556 63.7713C634.073 63.4332 634.676 63.2642 635.365 63.2642C635.763 63.2642 636.156 63.3305 636.544 63.4631C636.931 63.5956 637.284 63.8111 637.602 64.1094C637.921 64.4044 638.174 64.7955 638.363 65.2827C638.552 65.7699 638.646 66.3698 638.646 67.0824V67.5795H632.76V66.5653H637.453C637.453 66.1345 637.367 65.75 637.195 65.4119C637.026 65.0739 636.784 64.8071 636.469 64.6115C636.157 64.416 635.789 64.3182 635.365 64.3182C634.898 64.3182 634.494 64.4342 634.152 64.6662C633.814 64.8949 633.554 65.1932 633.372 65.5611C633.189 65.929 633.098 66.3234 633.098 66.7443V67.4205C633.098 67.9972 633.198 68.486 633.396 68.8871C633.599 69.2848 633.879 69.5881 634.237 69.7969C634.595 70.0024 635.011 70.1051 635.485 70.1051C635.793 70.1051 636.071 70.062 636.32 69.9759C636.572 69.8864 636.789 69.7538 636.971 69.5781C637.153 69.3991 637.294 69.1771 637.394 68.9119L638.527 69.2301C638.408 69.6146 638.207 69.9527 637.926 70.2443C637.644 70.5327 637.296 70.758 636.882 70.9205C636.467 71.0795 636.002 71.1591 635.485 71.1591ZM650.096 63.3636C650.036 62.8598 649.794 62.4688 649.37 62.1903C648.946 61.9119 648.426 61.7727 647.809 61.7727C647.358 61.7727 646.964 61.8456 646.626 61.9915C646.291 62.1373 646.029 62.3378 645.84 62.593C645.655 62.8482 645.562 63.1383 645.562 63.4631C645.562 63.7348 645.627 63.9685 645.756 64.1641C645.888 64.3563 646.057 64.517 646.263 64.6463C646.468 64.7723 646.684 64.8767 646.909 64.9595C647.135 65.0391 647.342 65.1037 647.531 65.1534L648.565 65.4318C648.83 65.5014 649.125 65.5975 649.45 65.7202C649.778 65.8428 650.091 66.0102 650.389 66.2223C650.691 66.4311 650.94 66.6996 651.135 67.0277C651.331 67.3558 651.428 67.7585 651.428 68.2358C651.428 68.786 651.284 69.2831 650.996 69.7273C650.711 70.1714 650.293 70.5244 649.743 70.7862C649.196 71.0481 648.532 71.179 647.749 71.179C647.02 71.179 646.389 71.0613 645.855 70.826C645.325 70.5907 644.907 70.2625 644.602 69.8416C644.301 69.4207 644.13 68.9318 644.09 68.375H645.363C645.396 68.7595 645.526 69.0777 645.751 69.3295C645.98 69.5781 646.268 69.7637 646.616 69.8864C646.967 70.0057 647.345 70.0653 647.749 70.0653C648.22 70.0653 648.643 69.9891 649.017 69.8366C649.392 69.6809 649.688 69.4654 649.907 69.1903C650.126 68.9119 650.235 68.5871 650.235 68.2159C650.235 67.8778 650.141 67.6027 649.952 67.3906C649.763 67.1785 649.514 67.0062 649.206 66.8736C648.898 66.741 648.565 66.625 648.207 66.5256L646.954 66.1676C646.159 65.9389 645.529 65.6125 645.065 65.1882C644.601 64.764 644.369 64.2088 644.369 63.5227C644.369 62.9527 644.523 62.4555 644.831 62.0312C645.143 61.6037 645.56 61.2723 646.084 61.0369C646.611 60.7983 647.199 60.679 647.849 60.679C648.505 60.679 649.088 60.7966 649.599 61.032C650.109 61.264 650.514 61.5821 650.812 61.9865C651.114 62.3909 651.273 62.8499 651.289 63.3636H650.096ZM656.498 71.1591C655.762 71.1591 655.128 70.9967 654.594 70.6719C654.064 70.3438 653.654 69.8864 653.366 69.2997C653.081 68.7098 652.939 68.0237 652.939 67.2415C652.939 66.4593 653.081 65.7699 653.366 65.1733C653.654 64.5734 654.056 64.1061 654.569 63.7713C655.086 63.4332 655.69 63.2642 656.379 63.2642C656.777 63.2642 657.169 63.3305 657.557 63.4631C657.945 63.5956 658.298 63.8111 658.616 64.1094C658.934 64.4044 659.188 64.7955 659.377 65.2827C659.566 65.7699 659.66 66.3698 659.66 67.0824V67.5795H653.774V66.5653H658.467C658.467 66.1345 658.381 65.75 658.208 65.4119C658.039 65.0739 657.797 64.8071 657.483 64.6115C657.171 64.416 656.803 64.3182 656.379 64.3182C655.912 64.3182 655.507 64.4342 655.166 64.6662C654.828 64.8949 654.568 65.1932 654.385 65.5611C654.203 65.929 654.112 66.3234 654.112 66.7443V67.4205C654.112 67.9972 654.211 68.486 654.41 68.8871C654.612 69.2848 654.892 69.5881 655.25 69.7969C655.608 70.0024 656.024 70.1051 656.498 70.1051C656.806 70.1051 657.085 70.062 657.333 69.9759C657.585 69.8864 657.802 69.7538 657.985 69.5781C658.167 69.3991 658.308 69.1771 658.407 68.9119L659.541 69.2301C659.422 69.6146 659.221 69.9527 658.939 70.2443C658.658 70.5327 658.31 70.758 657.895 70.9205C657.481 71.0795 657.015 71.1591 656.498 71.1591ZM666.854 65.0739L665.8 65.3722C665.734 65.1965 665.636 65.0258 665.507 64.8601C665.381 64.6911 665.208 64.5518 664.99 64.4425C664.771 64.3331 664.491 64.2784 664.15 64.2784C663.682 64.2784 663.293 64.3861 662.981 64.6016C662.673 64.8137 662.519 65.0838 662.519 65.4119C662.519 65.7036 662.625 65.9339 662.837 66.103C663.049 66.272 663.381 66.4129 663.831 66.5256L664.965 66.804C665.648 66.9697 666.156 67.2232 666.491 67.5646C666.826 67.9027 666.993 68.3385 666.993 68.8722C666.993 69.3097 666.867 69.7008 666.615 70.0455C666.367 70.3902 666.019 70.6619 665.571 70.8608C665.124 71.0597 664.604 71.1591 664.01 71.1591C663.231 71.1591 662.587 70.9901 662.076 70.652C661.566 70.3139 661.243 69.8201 661.107 69.1705L662.221 68.892C662.327 69.303 662.527 69.6113 662.822 69.8168C663.12 70.0223 663.51 70.125 663.99 70.125C664.537 70.125 664.971 70.009 665.293 69.777C665.618 69.5417 665.78 69.2599 665.78 68.9318C665.78 68.6667 665.687 68.4446 665.502 68.2656C665.316 68.0833 665.031 67.9474 664.647 67.858L663.374 67.5597C662.675 67.3939 662.161 67.1371 661.833 66.7891C661.508 66.4377 661.346 65.9986 661.346 65.4716C661.346 65.0407 661.467 64.6596 661.708 64.3281C661.954 63.9967 662.287 63.7365 662.708 63.5476C663.132 63.3587 663.613 63.2642 664.15 63.2642C664.905 63.2642 665.498 63.4299 665.929 63.7614C666.364 64.0928 666.672 64.5303 666.854 65.0739ZM674.169 65.0739L673.115 65.3722C673.048 65.1965 672.95 65.0258 672.821 64.8601C672.695 64.6911 672.523 64.5518 672.304 64.4425C672.085 64.3331 671.805 64.2784 671.464 64.2784C670.997 64.2784 670.607 64.3861 670.296 64.6016C669.987 64.8137 669.833 65.0838 669.833 65.4119C669.833 65.7036 669.939 65.9339 670.151 66.103C670.364 66.272 670.695 66.4129 671.146 66.5256L672.279 66.804C672.962 66.9697 673.471 67.2232 673.806 67.5646C674.14 67.9027 674.308 68.3385 674.308 68.8722C674.308 69.3097 674.182 69.7008 673.93 70.0455C673.681 70.3902 673.333 70.6619 672.886 70.8608C672.438 71.0597 671.918 71.1591 671.325 71.1591C670.546 71.1591 669.901 70.9901 669.391 70.652C668.88 70.3139 668.557 69.8201 668.421 69.1705L669.535 68.892C669.641 69.303 669.842 69.6113 670.137 69.8168C670.435 70.0223 670.824 70.125 671.305 70.125C671.852 70.125 672.286 70.009 672.607 69.777C672.932 69.5417 673.095 69.2599 673.095 68.9318C673.095 68.6667 673.002 68.4446 672.816 68.2656C672.631 68.0833 672.346 67.9474 671.961 67.858L670.688 67.5597C669.989 67.3939 669.475 67.1371 669.147 66.7891C668.822 66.4377 668.66 65.9986 668.66 65.4716C668.66 65.0407 668.781 64.6596 669.023 64.3281C669.268 63.9967 669.601 63.7365 670.022 63.5476C670.446 63.3587 670.927 63.2642 671.464 63.2642C672.22 63.2642 672.813 63.4299 673.244 63.7614C673.678 64.0928 673.986 64.5303 674.169 65.0739ZM676.074 71V63.3636H677.247V71H676.074ZM676.67 62.0909C676.442 62.0909 676.245 62.013 676.079 61.8572C675.916 61.7015 675.835 61.5142 675.835 61.2955C675.835 61.0767 675.916 60.8894 676.079 60.7337C676.245 60.5779 676.442 60.5 676.67 60.5C676.899 60.5 677.095 60.5779 677.257 60.7337C677.423 60.8894 677.506 61.0767 677.506 61.2955C677.506 61.5142 677.423 61.7015 677.257 61.8572C677.095 62.013 676.899 62.0909 676.67 62.0909ZM682.498 71.1591C681.809 71.1591 681.204 70.995 680.684 70.6669C680.167 70.3388 679.762 69.8797 679.471 69.2898C679.182 68.6998 679.038 68.0104 679.038 67.2216C679.038 66.4261 679.182 65.7318 679.471 65.1385C679.762 64.5452 680.167 64.0845 680.684 63.7564C681.204 63.4283 681.809 63.2642 682.498 63.2642C683.188 63.2642 683.791 63.4283 684.308 63.7564C684.828 64.0845 685.233 64.5452 685.521 65.1385C685.813 65.7318 685.959 66.4261 685.959 67.2216C685.959 68.0104 685.813 68.6998 685.521 69.2898C685.233 69.8797 684.828 70.3388 684.308 70.6669C683.791 70.995 683.188 71.1591 682.498 71.1591ZM682.498 70.1051C683.022 70.1051 683.453 69.9709 683.791 69.7024C684.129 69.4339 684.379 69.081 684.542 68.6435C684.704 68.206 684.785 67.732 684.785 67.2216C684.785 66.7112 684.704 66.2356 684.542 65.7947C684.379 65.3539 684.129 64.9976 683.791 64.7259C683.453 64.4541 683.022 64.3182 682.498 64.3182C681.975 64.3182 681.544 64.4541 681.206 64.7259C680.868 64.9976 680.617 65.3539 680.455 65.7947C680.293 66.2356 680.211 66.7112 680.211 67.2216C680.211 67.732 680.293 68.206 680.455 68.6435C680.617 69.081 680.868 69.4339 681.206 69.7024C681.544 69.9709 681.975 70.1051 682.498 70.1051ZM688.923 66.4062V71H687.75V63.3636H688.883V64.5568H688.983C689.162 64.169 689.433 63.8575 689.798 63.6222C690.163 63.3835 690.633 63.2642 691.21 63.2642C691.727 63.2642 692.179 63.3703 692.567 63.5824C692.955 63.7912 693.257 64.1094 693.472 64.5369C693.687 64.9612 693.795 65.4981 693.795 66.1477V71H692.622V66.2273C692.622 65.6274 692.466 65.16 692.154 64.8253C691.843 64.4872 691.415 64.3182 690.872 64.3182C690.497 64.3182 690.163 64.3994 689.868 64.5618C689.576 64.7242 689.346 64.9612 689.176 65.2727C689.007 65.5843 688.923 65.9621 688.923 66.4062ZM701.348 65.0739L700.294 65.3722C700.228 65.1965 700.13 65.0258 700.001 64.8601C699.875 64.6911 699.703 64.5518 699.484 64.4425C699.265 64.3331 698.985 64.2784 698.644 64.2784C698.176 64.2784 697.787 64.3861 697.475 64.6016C697.167 64.8137 697.013 65.0838 697.013 65.4119C697.013 65.7036 697.119 65.9339 697.331 66.103C697.543 66.272 697.875 66.4129 698.325 66.5256L699.459 66.804C700.142 66.9697 700.651 67.2232 700.985 67.5646C701.32 67.9027 701.487 68.3385 701.487 68.8722C701.487 69.3097 701.361 69.7008 701.11 70.0455C700.861 70.3902 700.513 70.6619 700.066 70.8608C699.618 71.0597 699.098 71.1591 698.504 71.1591C697.726 71.1591 697.081 70.9901 696.57 70.652C696.06 70.3139 695.737 69.8201 695.601 69.1705L696.715 68.892C696.821 69.303 697.021 69.6113 697.316 69.8168C697.615 70.0223 698.004 70.125 698.485 70.125C699.031 70.125 699.466 70.009 699.787 69.777C700.112 69.5417 700.274 69.2599 700.274 68.9318C700.274 68.6667 700.182 68.4446 699.996 68.2656C699.81 68.0833 699.525 67.9474 699.141 67.858L697.868 67.5597C697.169 67.3939 696.655 67.1371 696.327 66.7891C696.002 66.4377 695.84 65.9986 695.84 65.4716C695.84 65.0407 695.961 64.6596 696.203 64.3281C696.448 63.9967 696.781 63.7365 697.202 63.5476C697.626 63.3587 698.107 63.2642 698.644 63.2642C699.399 63.2642 699.993 63.4299 700.423 63.7614C700.858 64.0928 701.166 64.5303 701.348 65.0739Z" fill="#5A607F"/>
<path d="M598.959 46.4432V44.0213L605.031 34.4545H607.119V37.8068H605.884L602.055 43.8651V43.9787H610.685V46.4432H598.959ZM605.94 49V45.7045L605.997 44.6321V34.4545H608.881V49H605.94ZM618.16 49.1989C617.066 49.1989 616.093 49.0213 615.241 48.6662C614.393 48.3063 613.728 47.8163 613.245 47.196C612.762 46.5758 612.521 45.8726 612.521 45.0866C612.521 44.4806 612.658 43.9242 612.933 43.4176C613.212 42.9062 613.591 42.4825 614.069 42.1463C614.547 41.8054 615.082 41.5876 615.674 41.4929V41.3935C614.897 41.2372 614.268 40.8608 613.785 40.2642C613.302 39.6629 613.06 38.9645 613.06 38.169C613.06 37.4162 613.281 36.7462 613.721 36.1591C614.161 35.5672 614.765 35.1032 615.532 34.767C616.304 34.4261 617.18 34.2557 618.16 34.2557C619.14 34.2557 620.013 34.4261 620.781 34.767C621.552 35.108 622.158 35.5743 622.599 36.1662C623.039 36.7533 623.262 37.4209 623.266 38.169C623.262 38.9692 623.015 39.6676 622.528 40.2642C622.04 40.8608 621.415 41.2372 620.653 41.3935V41.4929C621.235 41.5876 621.763 41.8054 622.237 42.1463C622.715 42.4825 623.094 42.9062 623.373 43.4176C623.657 43.9242 623.801 44.4806 623.806 45.0866C623.801 45.8726 623.558 46.5758 623.075 47.196C622.592 47.8163 621.924 48.3063 621.072 48.6662C620.224 49.0213 619.254 49.1989 618.16 49.1989ZM618.16 46.9403C618.647 46.9403 619.074 46.8527 619.438 46.6776C619.803 46.4976 620.087 46.2514 620.29 45.9389C620.499 45.6217 620.603 45.2571 620.603 44.8452C620.603 44.4238 620.496 44.0521 620.283 43.7301C620.07 43.4034 619.781 43.1477 619.417 42.9631C619.052 42.7737 618.633 42.679 618.16 42.679C617.691 42.679 617.272 42.7737 616.903 42.9631C616.533 43.1477 616.242 43.4034 616.029 43.7301C615.821 44.0521 615.717 44.4238 615.717 44.8452C615.717 45.2571 615.818 45.6217 616.022 45.9389C616.226 46.2514 616.512 46.4976 616.881 46.6776C617.251 46.8527 617.677 46.9403 618.16 46.9403ZM618.16 40.4418C618.567 40.4418 618.929 40.3589 619.246 40.1932C619.564 40.0275 619.812 39.7978 619.992 39.5043C620.172 39.2107 620.262 38.8722 620.262 38.4886C620.262 38.1098 620.172 37.7784 619.992 37.4943C619.812 37.2055 619.566 36.9806 619.254 36.8196C618.941 36.6539 618.576 36.571 618.16 36.571C617.748 36.571 617.383 36.6539 617.066 36.8196C616.749 36.9806 616.5 37.2055 616.32 37.4943C616.145 37.7784 616.058 38.1098 616.058 38.4886C616.058 38.8722 616.147 39.2107 616.327 39.5043C616.507 39.7978 616.756 40.0275 617.073 40.1932C617.39 40.3589 617.753 40.4418 618.16 40.4418Z" fill="#131523"/>
</g>
<g clip-path="url(#clip4_0_1683)">
<path d="M887.634 90.8182V101H886.401V92.1108H886.341L883.855 93.7614V92.5085L886.401 90.8182H887.634ZM893.883 101.139C893.134 101.139 892.496 100.935 891.969 100.528C891.442 100.117 891.039 99.5218 890.761 98.7429C890.482 97.9607 890.343 97.0161 890.343 95.9091C890.343 94.8087 890.482 93.8691 890.761 93.0902C891.042 92.308 891.447 91.7114 891.974 91.3004C892.504 90.8861 893.14 90.679 893.883 90.679C894.625 90.679 895.26 90.8861 895.787 91.3004C896.317 91.7114 896.722 92.308 897 93.0902C897.282 93.8691 897.423 94.8087 897.423 95.9091C897.423 97.0161 897.283 97.9607 897.005 98.7429C896.727 99.5218 896.324 100.117 895.797 100.528C895.27 100.935 894.632 101.139 893.883 101.139ZM893.883 100.045C894.625 100.045 895.202 99.6875 895.613 98.9716C896.024 98.2557 896.229 97.2348 896.229 95.9091C896.229 95.0275 896.135 94.2768 895.946 93.657C895.76 93.0372 895.492 92.5649 895.141 92.2401C894.793 91.9152 894.373 91.7528 893.883 91.7528C893.147 91.7528 892.572 92.1158 892.158 92.8416C891.743 93.5642 891.536 94.5866 891.536 95.9091C891.536 96.7907 891.629 97.5398 891.815 98.1562C892 98.7727 892.267 99.2417 892.615 99.5632C892.966 99.8847 893.389 100.045 893.883 100.045ZM899.831 101.08C899.586 101.08 899.376 100.992 899.2 100.816C899.024 100.64 898.936 100.43 898.936 100.185C898.936 99.9394 899.024 99.7289 899.2 99.5533C899.376 99.3776 899.586 99.2898 899.831 99.2898C900.077 99.2898 900.287 99.3776 900.463 99.5533C900.638 99.7289 900.726 99.9394 900.726 100.185C900.726 100.347 900.685 100.496 900.602 100.632C900.522 100.768 900.415 100.877 900.279 100.96C900.146 101.04 899.997 101.08 899.831 101.08ZM902.812 101V100.105L906.173 96.4261C906.567 95.9953 906.892 95.6207 907.147 95.3026C907.402 94.9811 907.591 94.6795 907.714 94.3977C907.84 94.1127 907.903 93.8144 907.903 93.5028C907.903 93.1449 907.817 92.835 907.644 92.5732C907.475 92.3113 907.243 92.1091 906.948 91.9666C906.653 91.8241 906.322 91.7528 905.954 91.7528C905.563 91.7528 905.221 91.834 904.93 91.9964C904.641 92.1555 904.418 92.3793 904.259 92.6676C904.103 92.956 904.025 93.294 904.025 93.6818H902.852C902.852 93.0852 902.989 92.5616 903.264 92.1108C903.539 91.66 903.914 91.3087 904.388 91.0568C904.865 90.8049 905.4 90.679 905.994 90.679C906.59 90.679 907.119 90.8049 907.58 91.0568C908.04 91.3087 908.402 91.6484 908.663 92.076C908.925 92.5036 909.056 92.9792 909.056 93.5028C909.056 93.8774 908.988 94.2436 908.852 94.6016C908.72 94.9562 908.488 95.3523 908.156 95.7898C907.828 96.224 907.372 96.7543 906.789 97.3807L904.502 99.8267V99.9062H909.235V101H902.812ZM910.831 98.9119V97.8977L915.305 90.8182H916.041V92.3892H915.544L912.163 97.7386V97.8182H918.189V98.9119H910.831ZM915.624 101V98.6037V98.1314V90.8182H916.797V101H915.624ZM925.242 99.0909V98.554C925.242 98.1828 925.319 97.843 925.471 97.5348C925.627 97.2232 925.852 96.9747 926.147 96.7891C926.445 96.6001 926.807 96.5057 927.231 96.5057C927.662 96.5057 928.023 96.6001 928.315 96.7891C928.606 96.9747 928.827 97.2232 928.976 97.5348C929.125 97.843 929.2 98.1828 929.2 98.554V99.0909C929.2 99.4621 929.124 99.8035 928.971 100.115C928.822 100.423 928.6 100.672 928.305 100.861C928.013 101.046 927.655 101.139 927.231 101.139C926.8 101.139 926.437 101.046 926.142 100.861C925.847 100.672 925.624 100.423 925.471 100.115C925.319 99.8035 925.242 99.4621 925.242 99.0909ZM926.257 98.554V99.0909C926.257 99.3991 926.329 99.6759 926.475 99.9212C926.621 100.163 926.873 100.284 927.231 100.284C927.579 100.284 927.824 100.163 927.967 99.9212C928.113 99.6759 928.186 99.3991 928.186 99.0909V98.554C928.186 98.2457 928.116 97.9706 927.977 97.7287C927.838 97.4834 927.589 97.3608 927.231 97.3608C926.883 97.3608 926.633 97.4834 926.48 97.7287C926.331 97.9706 926.257 98.2457 926.257 98.554ZM920.171 93.2642V92.7273C920.171 92.3561 920.248 92.0163 920.4 91.7081C920.556 91.3965 920.781 91.148 921.076 90.9624C921.374 90.7734 921.736 90.679 922.16 90.679C922.591 90.679 922.952 90.7734 923.244 90.9624C923.535 91.148 923.756 91.3965 923.905 91.7081C924.054 92.0163 924.129 92.3561 924.129 92.7273V93.2642C924.129 93.6354 924.052 93.9768 923.9 94.2884C923.751 94.5966 923.529 94.8452 923.234 95.0341C922.942 95.2197 922.584 95.3125 922.16 95.3125C921.729 95.3125 921.366 95.2197 921.071 95.0341C920.776 94.8452 920.552 94.5966 920.4 94.2884C920.248 93.9768 920.171 93.6354 920.171 93.2642ZM921.186 92.7273V93.2642C921.186 93.5724 921.258 93.8492 921.404 94.0945C921.55 94.3364 921.802 94.4574 922.16 94.4574C922.508 94.4574 922.753 94.3364 922.896 94.0945C923.042 93.8492 923.115 93.5724 923.115 93.2642V92.7273C923.115 92.419 923.045 92.1439 922.906 91.902C922.767 91.6567 922.518 91.5341 922.16 91.5341C921.812 91.5341 921.562 91.6567 921.409 91.902C921.26 92.1439 921.186 92.419 921.186 92.7273ZM920.549 101L927.549 90.8182H928.683L921.683 101H920.549Z" fill="#F0142F"/>
<path fill-rule="evenodd" clip-rule="evenodd" d="M941.293 93.2929C940.932 93.6534 940.905 94.2206 941.21 94.6129L941.293 94.7071L946.293 99.7071C946.653 100.068 947.221 100.095 947.613 99.7903L947.707 99.7071L952.707 94.7071C953.098 94.3166 953.098 93.6834 952.707 93.2929C952.347 92.9324 951.779 92.9047 951.387 93.2097L951.293 93.2929L947 97.585L942.707 93.2929C942.347 92.9324 941.779 92.9047 941.387 93.2097L941.293 93.2929Z" fill="#F0142F"/>
<path d="M883.676 61.9119V60.8182H891.312V61.9119H888.111V71H886.878V61.9119H883.676ZM895.051 71.1591C894.362 71.1591 893.757 70.995 893.237 70.6669C892.719 70.3388 892.315 69.8797 892.023 69.2898C891.735 68.6998 891.591 68.0104 891.591 67.2216C891.591 66.4261 891.735 65.7318 892.023 65.1385C892.315 64.5452 892.719 64.0845 893.237 63.7564C893.757 63.4283 894.362 63.2642 895.051 63.2642C895.741 63.2642 896.344 63.4283 896.861 63.7564C897.381 64.0845 897.786 64.5452 898.074 65.1385C898.366 65.7318 898.511 66.4261 898.511 67.2216C898.511 68.0104 898.366 68.6998 898.074 69.2898C897.786 69.8797 897.381 70.3388 896.861 70.6669C896.344 70.995 895.741 71.1591 895.051 71.1591ZM895.051 70.1051C895.575 70.1051 896.006 69.9709 896.344 69.7024C896.682 69.4339 896.932 69.081 897.094 68.6435C897.257 68.206 897.338 67.732 897.338 67.2216C897.338 66.7112 897.257 66.2356 897.094 65.7947C896.932 65.3539 896.682 64.9976 896.344 64.7259C896.006 64.4541 895.575 64.3182 895.051 64.3182C894.527 64.3182 894.097 64.4541 893.759 64.7259C893.42 64.9976 893.17 65.3539 893.008 65.7947C892.845 66.2356 892.764 66.7112 892.764 67.2216C892.764 67.732 892.845 68.206 893.008 68.6435C893.17 69.081 893.42 69.4339 893.759 69.7024C894.097 69.9709 894.527 70.1051 895.051 70.1051ZM903.623 63.3636V64.358H899.666V63.3636H903.623ZM900.819 61.5341H901.993V68.8125C901.993 69.1439 902.041 69.3925 902.137 69.5582C902.236 69.7206 902.362 69.83 902.515 69.8864C902.671 69.9394 902.835 69.9659 903.007 69.9659C903.136 69.9659 903.242 69.9593 903.325 69.946C903.408 69.9295 903.474 69.9162 903.524 69.9062L903.763 70.9602C903.683 70.9901 903.572 71.0199 903.43 71.0497C903.287 71.0829 903.106 71.0994 902.888 71.0994C902.556 71.0994 902.231 71.0282 901.913 70.8857C901.598 70.7431 901.336 70.526 901.128 70.2344C900.922 69.9427 900.819 69.5748 900.819 69.1307V61.5341ZM907.635 71.179C907.152 71.179 906.712 71.0878 906.318 70.9055C905.924 70.7199 905.61 70.4531 905.378 70.1051C905.146 69.7538 905.03 69.3295 905.03 68.8324C905.03 68.3949 905.117 68.0402 905.289 67.7685C905.461 67.4934 905.692 67.2779 905.98 67.1222C906.268 66.9664 906.586 66.8504 906.934 66.7741C907.286 66.6946 907.639 66.6316 907.993 66.5852C908.457 66.5256 908.834 66.4808 909.122 66.451C909.414 66.4179 909.626 66.3632 909.758 66.2869C909.894 66.2107 909.962 66.0781 909.962 65.8892V65.8494C909.962 65.3589 909.828 64.9777 909.559 64.706C909.294 64.4342 908.892 64.2983 908.351 64.2983C907.791 64.2983 907.352 64.4209 907.034 64.6662C906.716 64.9115 906.492 65.1733 906.363 65.4517L905.249 65.054C905.448 64.59 905.713 64.2287 906.045 63.9702C906.379 63.7083 906.744 63.526 907.138 63.4233C907.536 63.3172 907.927 63.2642 908.312 63.2642C908.557 63.2642 908.839 63.294 909.157 63.3537C909.478 63.41 909.788 63.5277 910.086 63.7067C910.388 63.8857 910.638 64.1558 910.837 64.517C911.036 64.8783 911.135 65.3622 911.135 65.9688V71H909.962V69.9659H909.903C909.823 70.1316 909.69 70.3089 909.505 70.4979C909.319 70.6868 909.072 70.8475 908.764 70.9801C908.456 71.1127 908.08 71.179 907.635 71.179ZM907.814 70.125C908.278 70.125 908.67 70.0339 908.988 69.8516C909.309 69.6693 909.551 69.4339 909.714 69.1456C909.879 68.8572 909.962 68.554 909.962 68.2358V67.1619C909.912 67.2216 909.803 67.2763 909.634 67.326C909.468 67.3724 909.276 67.4138 909.057 67.4503C908.842 67.4834 908.631 67.5133 908.426 67.5398C908.224 67.563 908.06 67.5829 907.934 67.5994C907.629 67.6392 907.344 67.7038 907.079 67.7933C906.817 67.8795 906.605 68.0104 906.442 68.1861C906.283 68.3584 906.204 68.5937 906.204 68.892C906.204 69.2997 906.354 69.608 906.656 69.8168C906.961 70.0223 907.347 70.125 907.814 70.125ZM914.45 60.8182V71H913.277V60.8182H914.45ZM926.264 63.3636C926.204 62.8598 925.962 62.4688 925.538 62.1903C925.114 61.9119 924.594 61.7727 923.977 61.7727C923.526 61.7727 923.132 61.8456 922.794 61.9915C922.459 62.1373 922.197 62.3378 922.008 62.593C921.823 62.8482 921.73 63.1383 921.73 63.4631C921.73 63.7348 921.795 63.9685 921.924 64.1641C922.056 64.3563 922.225 64.517 922.431 64.6463C922.636 64.7723 922.852 64.8767 923.077 64.9595C923.303 65.0391 923.51 65.1037 923.699 65.1534L924.733 65.4318C924.998 65.5014 925.293 65.5975 925.618 65.7202C925.946 65.8428 926.259 66.0102 926.557 66.2223C926.859 66.4311 927.108 66.6996 927.303 67.0277C927.499 67.3558 927.596 67.7585 927.596 68.2358C927.596 68.786 927.452 69.2831 927.164 69.7273C926.879 70.1714 926.461 70.5244 925.911 70.7862C925.364 71.0481 924.7 71.179 923.917 71.179C923.188 71.179 922.557 71.0613 922.023 70.826C921.493 70.5907 921.075 70.2625 920.77 69.8416C920.469 69.4207 920.298 68.9318 920.258 68.375H921.531C921.564 68.7595 921.693 69.0777 921.919 69.3295C922.148 69.5781 922.436 69.7637 922.784 69.8864C923.135 70.0057 923.513 70.0653 923.917 70.0653C924.388 70.0653 924.811 69.9891 925.185 69.8366C925.56 69.6809 925.856 69.4654 926.075 69.1903C926.294 68.9119 926.403 68.5871 926.403 68.2159C926.403 67.8778 926.309 67.6027 926.12 67.3906C925.931 67.1785 925.682 67.0062 925.374 66.8736C925.066 66.741 924.733 66.625 924.375 66.5256L923.122 66.1676C922.327 65.9389 921.697 65.6125 921.233 65.1882C920.769 64.764 920.537 64.2088 920.537 63.5227C920.537 62.9527 920.691 62.4555 920.999 62.0312C921.311 61.6037 921.728 61.2723 922.252 61.0369C922.779 60.7983 923.367 60.679 924.017 60.679C924.673 60.679 925.256 60.7966 925.767 61.032C926.277 61.264 926.682 61.5821 926.98 61.9865C927.282 62.3909 927.441 62.8499 927.457 63.3636H926.264ZM932.666 71.1591C931.93 71.1591 931.296 70.9967 930.762 70.6719C930.232 70.3438 929.822 69.8864 929.534 69.2997C929.249 68.7098 929.107 68.0237 929.107 67.2415C929.107 66.4593 929.249 65.7699 929.534 65.1733C929.822 64.5734 930.223 64.1061 930.737 63.7713C931.254 63.4332 931.857 63.2642 932.547 63.2642C932.945 63.2642 933.337 63.3305 933.725 63.4631C934.113 63.5956 934.466 63.8111 934.784 64.1094C935.102 64.4044 935.356 64.7955 935.545 65.2827C935.734 65.7699 935.828 66.3698 935.828 67.0824V67.5795H929.942V66.5653H934.635C934.635 66.1345 934.549 65.75 934.376 65.4119C934.207 65.0739 933.965 64.8071 933.651 64.6115C933.339 64.416 932.971 64.3182 932.547 64.3182C932.08 64.3182 931.675 64.4342 931.334 64.6662C930.996 64.8949 930.736 65.1932 930.553 65.5611C930.371 65.929 930.28 66.3234 930.28 66.7443V67.4205C930.28 67.9972 930.379 68.486 930.578 68.8871C930.78 69.2848 931.06 69.5881 931.418 69.7969C931.776 70.0024 932.192 70.1051 932.666 70.1051C932.974 70.1051 933.253 70.062 933.501 69.9759C933.753 69.8864 933.97 69.7538 934.153 69.5781C934.335 69.3991 934.476 69.1771 934.575 68.9119L935.709 69.2301C935.589 69.6146 935.389 69.9527 935.107 70.2443C934.826 70.5327 934.478 70.758 934.063 70.9205C933.649 71.0795 933.183 71.1591 932.666 71.1591ZM943.022 65.0739L941.968 65.3722C941.902 65.1965 941.804 65.0258 941.675 64.8601C941.549 64.6911 941.376 64.5518 941.158 64.4425C940.939 64.3331 940.659 64.2784 940.317 64.2784C939.85 64.2784 939.461 64.3861 939.149 64.6016C938.841 64.8137 938.687 65.0838 938.687 65.4119C938.687 65.7036 938.793 65.9339 939.005 66.103C939.217 66.272 939.549 66.4129 939.999 66.5256L941.133 66.804C941.816 66.9697 942.324 67.2232 942.659 67.5646C942.994 67.9027 943.161 68.3385 943.161 68.8722C943.161 69.3097 943.035 69.7008 942.783 70.0455C942.535 70.3902 942.187 70.6619 941.739 70.8608C941.292 71.0597 940.772 71.1591 940.178 71.1591C939.399 71.1591 938.755 70.9901 938.244 70.652C937.734 70.3139 937.411 69.8201 937.275 69.1705L938.388 68.892C938.495 69.303 938.695 69.6113 938.99 69.8168C939.288 70.0223 939.678 70.125 940.158 70.125C940.705 70.125 941.139 70.009 941.461 69.777C941.786 69.5417 941.948 69.2599 941.948 68.9318C941.948 68.6667 941.855 68.4446 941.67 68.2656C941.484 68.0833 941.199 67.9474 940.815 67.858L939.542 67.5597C938.843 67.3939 938.329 67.1371 938.001 66.7891C937.676 66.4377 937.513 65.9986 937.513 65.4716C937.513 65.0407 937.634 64.6596 937.876 64.3281C938.122 63.9967 938.455 63.7365 938.876 63.5476C939.3 63.3587 939.781 63.2642 940.317 63.2642C941.073 63.2642 941.666 63.4299 942.097 63.7614C942.531 64.0928 942.84 64.5303 943.022 65.0739ZM950.336 65.0739L949.282 65.3722C949.216 65.1965 949.118 65.0258 948.989 64.8601C948.863 64.6911 948.691 64.5518 948.472 64.4425C948.253 64.3331 947.973 64.2784 947.632 64.2784C947.165 64.2784 946.775 64.3861 946.464 64.6016C946.155 64.8137 946.001 65.0838 946.001 65.4119C946.001 65.7036 946.107 65.9339 946.319 66.103C946.532 66.272 946.863 66.4129 947.314 66.5256L948.447 66.804C949.13 66.9697 949.639 67.2232 949.974 67.5646C950.308 67.9027 950.476 68.3385 950.476 68.8722C950.476 69.3097 950.35 69.7008 950.098 70.0455C949.849 70.3902 949.501 70.6619 949.054 70.8608C948.606 71.0597 948.086 71.1591 947.493 71.1591C946.714 71.1591 946.069 70.9901 945.559 70.652C945.048 70.3139 944.725 69.8201 944.589 69.1705L945.703 68.892C945.809 69.303 946.01 69.6113 946.305 69.8168C946.603 70.0223 946.992 70.125 947.473 70.125C948.02 70.125 948.454 70.009 948.775 69.777C949.1 69.5417 949.263 69.2599 949.263 68.9318C949.263 68.6667 949.17 68.4446 948.984 68.2656C948.799 68.0833 948.514 67.9474 948.129 67.858L946.856 67.5597C946.157 67.3939 945.643 67.1371 945.315 66.7891C944.99 66.4377 944.828 65.9986 944.828 65.4716C944.828 65.0407 944.949 64.6596 945.191 64.3281C945.436 63.9967 945.769 63.7365 946.19 63.5476C946.614 63.3587 947.095 63.2642 947.632 63.2642C948.388 63.2642 948.981 63.4299 949.412 63.7614C949.846 64.0928 950.154 64.5303 950.336 65.0739ZM952.242 71V63.3636H953.415V71H952.242ZM952.838 62.0909C952.61 62.0909 952.413 62.013 952.247 61.8572C952.084 61.7015 952.003 61.5142 952.003 61.2955C952.003 61.0767 952.084 60.8894 952.247 60.7337C952.413 60.5779 952.61 60.5 952.838 60.5C953.067 60.5 953.263 60.5779 953.425 60.7337C953.591 60.8894 953.674 61.0767 953.674 61.2955C953.674 61.5142 953.591 61.7015 953.425 61.8572C953.263 62.013 953.067 62.0909 952.838 62.0909ZM958.666 71.1591C957.977 71.1591 957.372 70.995 956.852 70.6669C956.335 70.3388 955.93 69.8797 955.639 69.2898C955.35 68.6998 955.206 68.0104 955.206 67.2216C955.206 66.4261 955.35 65.7318 955.639 65.1385C955.93 64.5452 956.335 64.0845 956.852 63.7564C957.372 63.4283 957.977 63.2642 958.666 63.2642C959.356 63.2642 959.959 63.4283 960.476 63.7564C960.996 64.0845 961.401 64.5452 961.689 65.1385C961.981 65.7318 962.127 66.4261 962.127 67.2216C962.127 68.0104 961.981 68.6998 961.689 69.2898C961.401 69.8797 960.996 70.3388 960.476 70.6669C959.959 70.995 959.356 71.1591 958.666 71.1591ZM958.666 70.1051C959.19 70.1051 959.621 69.9709 959.959 69.7024C960.297 69.4339 960.547 69.081 960.71 68.6435C960.872 68.206 960.953 67.732 960.953 67.2216C960.953 66.7112 960.872 66.2356 960.71 65.7947C960.547 65.3539 960.297 64.9976 959.959 64.7259C959.621 64.4541 959.19 64.3182 958.666 64.3182C958.143 64.3182 957.712 64.4541 957.374 64.7259C957.036 64.9976 956.785 65.3539 956.623 65.7947C956.461 66.2356 956.379 66.7112 956.379 67.2216C956.379 67.732 956.461 68.206 956.623 68.6435C956.785 69.081 957.036 69.4339 957.374 69.7024C957.712 69.9709 958.143 70.1051 958.666 70.1051ZM965.091 66.4062V71H963.918V63.3636H965.051V64.5568H965.151C965.33 64.169 965.601 63.8575 965.966 63.6222C966.33 63.3835 966.801 63.2642 967.378 63.2642C967.895 63.2642 968.347 63.3703 968.735 63.5824C969.123 63.7912 969.424 64.1094 969.64 64.5369C969.855 64.9612 969.963 65.4981 969.963 66.1477V71H968.79V66.2273C968.79 65.6274 968.634 65.16 968.322 64.8253C968.011 64.4872 967.583 64.3182 967.04 64.3182C966.665 64.3182 966.33 64.3994 966.036 64.5618C965.744 64.7242 965.513 64.9612 965.344 65.2727C965.175 65.5843 965.091 65.9621 965.091 66.4062ZM977.516 65.0739L976.462 65.3722C976.396 65.1965 976.298 65.0258 976.169 64.8601C976.043 64.6911 975.871 64.5518 975.652 64.4425C975.433 64.3331 975.153 64.2784 974.812 64.2784C974.344 64.2784 973.955 64.3861 973.643 64.6016C973.335 64.8137 973.181 65.0838 973.181 65.4119C973.181 65.7036 973.287 65.9339 973.499 66.103C973.711 66.272 974.043 66.4129 974.493 66.5256L975.627 66.804C976.31 66.9697 976.818 67.2232 977.153 67.5646C977.488 67.9027 977.655 68.3385 977.655 68.8722C977.655 69.3097 977.529 69.7008 977.278 70.0455C977.029 70.3902 976.681 70.6619 976.233 70.8608C975.786 71.0597 975.266 71.1591 974.672 71.1591C973.894 71.1591 973.249 70.9901 972.738 70.652C972.228 70.3139 971.905 69.8201 971.769 69.1705L972.883 68.892C972.989 69.303 973.189 69.6113 973.484 69.8168C973.782 70.0223 974.172 70.125 974.653 70.125C975.199 70.125 975.634 70.009 975.955 69.777C976.28 69.5417 976.442 69.2599 976.442 68.9318C976.442 68.6667 976.349 68.4446 976.164 68.2656C975.978 68.0833 975.693 67.9474 975.309 67.858L974.036 67.5597C973.337 67.3939 972.823 67.1371 972.495 66.7891C972.17 66.4377 972.008 65.9986 972.008 65.4716C972.008 65.0407 972.129 64.6596 972.371 64.3281C972.616 63.9967 972.949 63.7365 973.37 63.5476C973.794 63.3587 974.275 63.2642 974.812 63.2642C975.567 63.2642 976.161 63.4299 976.591 63.7614C977.026 64.0928 977.334 64.5303 977.516 65.0739Z" fill="#5A607F"/>
<path d="M889.491 49.1989C888.488 49.1989 887.593 49.0142 886.807 48.6449C886.026 48.2756 885.405 47.7666 884.946 47.1179C884.487 46.4692 884.248 45.7259 884.229 44.8878H887.212C887.245 45.4512 887.482 45.9081 887.922 46.2585C888.362 46.6089 888.885 46.7841 889.491 46.7841C889.974 46.7841 890.401 46.6776 890.77 46.4645C891.144 46.2467 891.435 45.946 891.643 45.5625C891.857 45.1742 891.963 44.7292 891.963 44.2273C891.963 43.7159 891.854 43.2661 891.636 42.8778C891.423 42.4896 891.127 42.1866 890.749 41.9688C890.37 41.7509 889.937 41.6397 889.449 41.6349C889.023 41.6349 888.608 41.7225 888.206 41.8977C887.808 42.0729 887.498 42.312 887.276 42.6151L884.541 42.125L885.23 34.4545H894.122V36.9688H887.766L887.389 40.6122H887.474C887.73 40.2524 888.116 39.9541 888.632 39.7173C889.148 39.4806 889.726 39.3622 890.365 39.3622C891.241 39.3622 892.022 39.5682 892.709 39.9801C893.395 40.392 893.938 40.9579 894.335 41.6776C894.733 42.3925 894.929 43.2164 894.925 44.1491C894.929 45.1293 894.702 46.0005 894.243 46.7628C893.788 47.5204 893.152 48.117 892.332 48.5526C891.518 48.9834 890.571 49.1989 889.491 49.1989ZM898.398 49.1847C897.929 49.1847 897.527 49.0189 897.19 48.6875C896.859 48.3513 896.693 47.9489 896.693 47.4801C896.693 47.0161 896.859 46.6184 897.19 46.2869C897.527 45.9555 897.929 45.7898 898.398 45.7898C898.852 45.7898 899.25 45.9555 899.591 46.2869C899.932 46.6184 900.102 47.0161 900.102 47.4801C900.102 47.7926 900.022 48.0791 899.861 48.3395C899.705 48.5952 899.499 48.8011 899.243 48.9574C898.987 49.1089 898.705 49.1847 898.398 49.1847ZM902.338 46.4432V44.0213L908.41 34.4545H910.498V37.8068H909.262L905.434 43.8651V43.9787H914.064V46.4432H902.338ZM909.319 49V45.7045L909.376 44.6321V34.4545H912.26V49H909.319ZM916.113 49V46.7841L921.29 41.9901C921.73 41.5639 922.1 41.1804 922.398 40.8395C922.701 40.4986 922.931 40.1648 923.087 39.8381C923.243 39.5066 923.321 39.1491 923.321 38.7656C923.321 38.3395 923.224 37.9725 923.03 37.6648C922.836 37.3523 922.571 37.1132 922.235 36.9474C921.899 36.777 921.517 36.6918 921.091 36.6918C920.646 36.6918 920.258 36.7817 919.926 36.9616C919.595 37.1416 919.339 37.3996 919.159 37.7358C918.98 38.072 918.89 38.4721 918.89 38.9361H915.971C915.971 37.9844 916.186 37.1581 916.617 36.4574C917.048 35.7566 917.651 35.2145 918.428 34.831C919.204 34.4474 920.099 34.2557 921.113 34.2557C922.154 34.2557 923.061 34.4403 923.833 34.8097C924.609 35.1742 925.213 35.6809 925.644 36.3295C926.075 36.9782 926.29 37.7216 926.29 38.5597C926.29 39.1089 926.181 39.651 925.963 40.1861C925.75 40.7211 925.369 41.3153 924.82 41.9688C924.271 42.6174 923.497 43.3963 922.498 44.3054L920.374 46.3864V46.4858H926.482V49H916.113ZM934.413 49.3196C933.192 49.3149 932.141 49.0142 931.26 48.4176C930.384 47.821 929.709 46.9569 929.236 45.8253C928.767 44.6937 928.535 43.3324 928.54 41.7415C928.54 40.1553 928.774 38.8035 929.243 37.6861C929.716 36.5687 930.391 35.7187 931.267 35.1364C932.148 34.5492 933.196 34.2557 934.413 34.2557C935.63 34.2557 936.677 34.5492 937.553 35.1364C938.433 35.7235 939.11 36.5758 939.584 37.6932C940.057 38.8059 940.292 40.1553 940.287 41.7415C940.287 43.3371 940.05 44.7008 939.577 45.8324C939.108 46.964 938.436 47.8281 937.56 48.4247C936.684 49.0213 935.635 49.3196 934.413 49.3196ZM934.413 46.7699C935.247 46.7699 935.912 46.3509 936.409 45.5128C936.906 44.6747 937.152 43.4176 937.148 41.7415C937.148 40.6383 937.034 39.7197 936.807 38.9858C936.584 38.2519 936.267 37.7003 935.855 37.331C935.448 36.9616 934.967 36.777 934.413 36.777C933.585 36.777 932.922 37.1913 932.425 38.0199C931.928 38.8485 931.677 40.089 931.672 41.7415C931.672 42.8589 931.783 43.7917 932.006 44.5398C932.233 45.2831 932.553 45.8419 932.964 46.2159C933.376 46.5852 933.859 46.7699 934.413 46.7699Z" fill="#131523"/>
</g>
<circle cx="484" cy="68" r="28" fill="#ECF2FF"/>
<path fill-rule="evenodd" clip-rule="evenodd" d="M479.5 75C480.328 75 481 75.6716 481 76.5C481 77.3284 480.328 78 479.5 78C478.672 78 478 77.3284 478 76.5C478 75.6716 478.672 75 479.5 75ZM489.5 75C490.328 75 491 75.6716 491 76.5C491 77.3284 490.328 78 489.5 78C488.672 78 488 77.3284 488 76.5C488 75.6716 488.672 75 489.5 75ZM476.5 58C476.721 58 476.934 58.0732 477.108 58.2061L477.207 58.2929L479.915 61H492.489C493.042 61 493.489 61.4477 493.489 62C493.489 62.1342 493.462 62.267 493.41 62.3905L490.699 68.7811C490.385 69.5201 489.66 70 488.858 70H480V71L480.007 71.1166C480.06 71.5757 480.424 71.9399 480.883 71.9933L481 72H490L490.117 72.0067C490.614 72.0645 491 72.4872 491 73C491 73.5128 490.614 73.9355 490.117 73.9933L490 74H481L480.824 73.9949C479.307 73.907 478.093 72.6928 478.005 71.1763L478 71V69L478.007 68.8834C478.019 68.7799 478.047 68.6812 478.088 68.5898C478.031 68.4041 478 68.2057 478 68V61.915L476.085 60H475C474.448 60 474 59.5523 474 59C474 58.4477 474.448 58 475 58H476.5ZM490.978 63H480V68H488.858L490.978 63Z" fill="#1E5EFF"/>
<circle cx="769" cy="68" r="28" fill="#ECF2FF"/>
<path fill-rule="evenodd" clip-rule="evenodd" d="M769 68C773.335 68 776.865 71.4478 776.996 75.7508L777 76V77H761V76C761 71.5817 764.582 68 769 68ZM769 70C766.144 70 763.755 71.9948 763.149 74.667L763.101 74.8977L763.084 75H774.915L774.899 74.8977C774.409 72.2618 772.197 70.2312 769.474 70.0184L769.225 70.0041L769 70ZM769 59C771.209 59 773 60.7909 773 63C773 65.2091 771.209 67 769 67C766.791 67 765 65.2091 765 63C765 60.7909 766.791 59 769 59ZM769 61C767.895 61 767 61.8954 767 63C767 64.1046 767.895 65 769 65C770.105 65 771 64.1046 771 63C771 61.8954 770.105 61 769 61Z" fill="#1E5EFF"/>
<circle cx="1054" cy="68" r="28" fill="#ECF2FF"/>
<path fill-rule="evenodd" clip-rule="evenodd" d="M1059 67C1061.09 67 1062.93 68.0656 1064 69.6825L1064 73H1056L1056 74.952L1056.02 76H1044V75C1044 71.6863 1046.69 69 1050 69C1051.38 69 1052.65 69.4657 1053.67 70.2518C1054.66 68.3204 1056.68 67 1059 67ZM1050 71C1048.26 71 1046.78 72.1084 1046.23 73.6569L1046.17 73.8447L1046.13 74H1053.87L1053.84 73.8625C1053.38 72.3295 1052.04 71.1846 1050.41 71.0203L1050.2 71.0049L1050 71ZM1059 69C1057.6 69 1056.38 69.7144 1055.66 70.7973L1055.53 71H1062.46L1062.37 70.845C1061.69 69.7872 1060.53 69.0708 1059.2 69.005L1059 69ZM1050 60C1052.21 60 1054 61.7909 1054 64C1054 66.2091 1052.21 68 1050 68C1047.79 68 1046 66.2091 1046 64C1046 61.7909 1047.79 60 1050 60ZM1059 60C1060.66 60 1062 61.3431 1062 63C1062 64.6569 1060.66 66 1059 66C1057.34 66 1056 64.6569 1056 63C1056 61.3431 1057.34 60 1059 60ZM1050 62C1048.9 62 1048 62.8954 1048 64C1048 65.1046 1048.9 66 1050 66C1051.1 66 1052 65.1046 1052 64C1052 62.8954 1051.1 62 1050 62ZM1059 62C1058.72 62 1058 62 1058 62C1058 62 1058 62.7239 1058 63C1058 63.2761 1058 64 1058 64C1058 64 1058.72 64 1059 64C1059.28 64 1060 64 1060 64C1060 64 1060 63.2761 1060 63C1060 62.8644 1060 62 1060 62C1060 62 1059.14 62 1059 62Z" fill="#1E5EFF"/>
</g>
<defs>
<filter id="filter0_d_0_1683" x="-4" y="-3" width="1118" height="144" filterUnits="userSpaceOnUse" color-interpolation-filters="sRGB">
<feFlood flood-opacity="0" result="BackgroundImageFix"/>
<feColorMatrix in="SourceAlpha" type="matrix" values="0 0 0 0 0 0 0 0 0 0 0 0 0 0 0 0 0 0 127 0" result="hardAlpha"/>
<feOffset dy="1"/>
<feGaussianBlur stdDeviation="2"/>
<feColorMatrix type="matrix" values="0 0 0 0 0.0823529 0 0 0 0 0.133333 0 0 0 0 0.196078 0 0 0 0.08 0"/>
<feBlend mode="normal" in2="BackgroundImageFix" result="effect1_dropShadow_0_1683"/>
<feBlend mode="normal" in="SourceGraphic" in2="effect1_dropShadow_0_1683" result="shape"/>
</filter>
<clipPath id="clip0_0_1683">
<rect width="1110" height="136" fill="white"/>
</clipPath>
<clipPath id="clip1_0_1683">
<rect width="96" height="80" fill="white" transform="translate(28 28)"/>
</clipPath>
<clipPath id="clip2_0_1683">
<rect width="77" height="80" fill="white" transform="translate(313 28)"/>
</clipPath>
<clipPath id="clip3_0_1683">
<rect width="105" height="80" fill="white" transform="translate(598 28)"/>
</clipPath>
<clipPath id="clip4_0_1683">
<rect width="97" height="80" fill="white" transform="translate(883 28)"/>
</clipPath>
</defs>
</svg>
